<svg id="icons" enable-background="new 0 0 64 64" height="512" viewBox="0 0 64 64" width="512" xmlns="http://www.w3.org/2000/svg"><path d="m61 3.994h-58c-1.654 0-3 1.346-3 3v52.004c0 .553.447 1 1 1h7.961c.014.001.025.008.039.008h8.002c.014 0 .025-.007.039-.008h10.919c.014.001.025.008.039.008h8.002c.014 0 .025-.007.039-.008h10.919c.014.001.025.008.039.008h8.002c.014 0 .025-.007.039-.008h7.961c.553 0 1-.447 1-1v-52.004c0-1.654-1.346-3-3-3zm-13.002 54.004v-2.99h6.002v2.99zm2.001-4.99c0-.552.448-1 1-1s1 .448 1 1zm5.001 0h-1.001c0-1.654-1.346-3-3-3s-3 1.346-3 3h-1.001c-.553 0-1 .447-1 1v3.99h-1.999v-8.992h14v8.992h-1.999v-3.99c0-.553-.447-1-1-1zm3.999-6.002h-16c-.553 0-1 .447-1 1v9.992h-.999v-9.992c0-.553-.447-1-1-1h-16c-.553 0-1 .447-1 1v9.992h-.999v-9.992c0-.553-.447-1-1-1h-16c-.553 0-1 .447-1 1v9.992h-2.001v-48.004h60v48.004h-2.001v-9.992c0-.553-.447-1-1-1zm-30 10.992v-2.99h6.002v2.99zm2.001-4.99c0-.552.448-1 1-1s1 .448 1 1zm5.001 0h-1.001c0-1.654-1.346-3-3-3s-3 1.346-3 3h-1.001c-.553 0-1 .447-1 1v3.99h-1.999v-8.992h14v8.992h-1.999v-3.99c0-.553-.447-1-1-1zm-26.001 4.99v-2.99h6.002v2.99zm2-4.99c0-.552.448-1 1-1s1 .448 1 1zm5.002 0h-1.002c0-1.654-1.346-3-3-3s-3 1.346-3 3h-1c-.553 0-1 .447-1 1v3.99h-1.999v-8.992h14v8.992h-1.999v-3.99c0-.553-.447-1-1-1zm-14.002-47.014h1.02c-.552 0-.994.447-.994 1s.452 1 1.005 1c.552 0 1-.447 1-1s-.448-1-1-1h2.988c-.552 0-.994.447-.994 1s.452 1 1.005 1c.552 0 1-.447 1-1s-.448-1-1-1h2.992c-.552 0-.994.447-.994 1s.452 1 1.005 1c.552 0 1-.447 1-1s-.448-1-1-1h50.967c.552 0 1 .448 1 1v1h-51.968-3.003-2.999-2.03v-1c0-.552.448-1 1-1z"/><path d="m40 11.994h-34.999c-.553 0-1 .447-1 1v31c0 .553.447 1 1 1h34.999c.553 0 1-.447 1-1v-31c0-.553-.447-1-1-1zm-1 31h-32.999v-29h32.999z"/><path d="m43 22.998h15.999c.553 0 1-.447 1-1s-.447-1-1-1h-15.999c-.553 0-1 .447-1 1s.447 1 1 1z"/><path d="m43 19.998h15.999c.553 0 1-.447 1-1s-.447-1-1-1h-15.999c-.553 0-1 .447-1 1s.447 1 1 1z"/><path d="m43 25.998h7.991c.553 0 1-.447 1-1s-.447-1-1-1h-7.991c-.553 0-1 .447-1 1s.447 1 1 1z"/><path d="m43 30.996h7.991c.553 0 1-.447 1-1s-.447-1-1-1h-7.991c-.553 0-1 .447-1 1s.447 1 1 1z"/><path d="m60 34.994c0-.553-.447-1-1-1h-16c-.553 0-1 .447-1 1v3c0 .553.447 1 1 1h16c.553 0 1-.447 1-1zm-2 2h-14v-1h14z"/><path d="m56 28.998c0-.553-.447-1-1-1h-.999c-.012 0-.021.006-.032.007-.064.002-.125.023-.188.038-.067.016-.136.024-.197.053-.009.004-.02.003-.029.008-.045.022-.073.061-.112.088-.061.042-.121.079-.17.133-.044.047-.072.103-.106.157-.033.055-.07.104-.093.165-.026.068-.032.14-.043.212-.007.048-.028.09-.028.14 0 .011.006.02.006.03.002.066.024.13.04.196.016.065.023.131.052.19.004.01.003.021.008.03l.362.726c-.275.178-.468.473-.468.825 0 .553.447 1 1 1h.997.001c.002 0 .004-.001.006-.001.148-.001.286-.039.413-.098.009-.005.019-.003.027-.007.045-.022.073-.061.113-.088.06-.042.12-.079.169-.133.044-.047.072-.103.106-.157.033-.055.07-.104.094-.166.025-.067.031-.139.042-.211.007-.048.028-.09.028-.14 0-.011-.006-.02-.006-.03-.002-.066-.024-.13-.04-.195s-.023-.132-.052-.192c-.004-.009-.003-.02-.008-.029l-.362-.726c.276-.177.469-.472.469-.825z"/><path d="m11 40.994h22.999c.553 0 1-.447 1-1v-17c0-.553-.447-1-1-1h-2.997v-.002c0-.004.002-.006.002-.01 0-3.309-2.691-6-6-6-.894 0-1.739.202-2.502.554-.764-.352-1.609-.554-2.503-.554-3.309 0-6 2.691-6 6v.012h-2.999c-.553 0-1 .447-1 1v17c0 .553.447 1 1 1zm21.999-2h-3v-15h3zm-3.996-17.018c0 .003-.001.005-.001.007v.012h-3.001v-.012c0-.005-.003-.009-.003-.013-.003-1.508-.569-2.884-1.493-3.937.165-.021.328-.051.499-.051 2.204 0 3.996 1.791 3.999 3.994zm-7.999.006c0-1.254.592-2.361 1.498-3.096.905.734 1.497 1.842 1.497 3.096 0 .004.002.006.002.01v.002h-2.999c0-.004.002-.008.002-.012zm-1.005-4c.171 0 .334.029.499.051-.922 1.05-1.486 2.421-1.493 3.924 0 .009-.005.017-.005.025v.012h-3.001v-.012c0-2.206 1.794-4 4-4zm-7.999 6.012h15.999v15h-15.999z"/></svg>