<?xml version="1.0" encoding="UTF-8" standalone="no"?>
<svg
   xmlns:dc="http://purl.org/dc/elements/1.1/"
   xmlns:cc="http://creativecommons.org/ns#"
   xmlns:rdf="http://www.w3.org/1999/02/22-rdf-syntax-ns#"
   xmlns:svg="http://www.w3.org/2000/svg"
   xmlns="http://www.w3.org/2000/svg"
   xmlns:sodipodi="http://sodipodi.sourceforge.net/DTD/sodipodi-0.dtd"
   xmlns:inkscape="http://www.inkscape.org/namespaces/inkscape"
   width="52"
   height="52"
   viewBox="0 0 52 52"
   fill="none"
   version="1.1"
   id="svg13"
   sodipodi:docname="instagram.svg"
   inkscape:export-filename="/var/www/html/mywebsite/shops/assets/img/whatsapp.png"
   inkscape:export-xdpi="58"
   inkscape:export-ydpi="58"
   inkscape:version="0.92.4 (5da689c313, 2019-01-14)">
  <metadata
     id="metadata17">
    <rdf:RDF>
      <cc:Work
         rdf:about="">
        <dc:format>image/svg+xml</dc:format>
        <dc:type
           rdf:resource="http://purl.org/dc/dcmitype/StillImage" />
        <dc:title></dc:title>
      </cc:Work>
    </rdf:RDF>
  </metadata>
  <sodipodi:namedview
     pagecolor="#ffffff"
     bordercolor="#666666"
     borderopacity="1"
     objecttolerance="10"
     gridtolerance="10"
     guidetolerance="10"
     inkscape:pageopacity="0"
     inkscape:pageshadow="2"
     inkscape:window-width="1280"
     inkscape:window-height="772"
     id="namedview15"
     showgrid="false"
     inkscape:zoom="6.4183539"
     inkscape:cx="15.636867"
     inkscape:cy="30.277764"
     inkscape:window-x="0"
     inkscape:window-y="0"
     inkscape:window-maximized="1"
     inkscape:current-layer="svg13" />
  <defs
     id="defs11">
    <clipPath
       id="clip0">
      <rect
         width="52"
         height="52"
         fill="white"
         id="rect8" />
    </clipPath>
  </defs>
  <path
     inkscape:connector-curvature="0"
     d="m 111.02595,-49.949153 c -17.100005,0 -31.000005,13.9 -31.000005,31 0,5.25 1.299609,10.4001961 3.849609,14.9501951 l -2.649414,9.700195 c -0.45,1.55 -5.85e-4,3.149805 1.149414,4.2998049 1.15,1.15 2.750781,1.600195 4.300781,1.200195 l 10.09961,-2.6503899 c 4.400005,2.2999999 9.299805,3.4999999 14.299805,3.4999999 17.1,0 31,-13.8999999 31,-31 0,-8.3 -3.1998,-16.050391 -9.04981,-21.90039 -5.9,-5.85 -13.7,-9.09961 -21.99999,-9.09961 z m 0,3 c 7.49999,0 14.5498,2.900196 19.7998,8.200196 5.3,5.299999 8.2502,12.349804 8.2002,19.799804 0,15.4500001 -12.55001,28.0000001 -28,28.0000001 -4.65,0 -9.3004,-1.20039 -13.400396,-3.40039 -0.2,-0.1 -0.449219,-0.19922 -0.699219,-0.19922 -0.149999,0 -0.25039,-1.95e-4 -0.40039,0.0498 l -10.650391,2.79981 c -0.75,0.2 -1.249219,-0.20039 -1.449219,-0.40039 -0.2,-0.2 -0.60039,-0.69922 -0.40039,-1.44922 l 2.799804,-10.300781 c 0.1,-0.4 0.05059,-0.799414 -0.149414,-1.149414 -2.4,-4.2 -3.65039,-9.0501951 -3.65039,-13.9501951 0,-15.45 12.55,-28 28.000005,-28 z m 0,4.5 c -12.950005,0 -23.500005,10.5 -23.500005,23.5 0,4.15 1.10039,8.2 3.150391,11.7500001 0.8,1.4 0.999609,3.04961 0.599609,4.599609 l -1.450196,5.250001 5.600587,-1.44922 c 0.5,-0.15 0.999999,-0.200195 1.499999,-0.200195 1,0 1.99961,0.25 2.84961,0.75 3.450005,1.8 7.300005,2.799805 11.250005,2.799805 12.94999,0 23.49999,-10.55 23.49999,-23.5000001 0,-6.3 -2.45039,-12.200391 -6.90039,-16.65039 -4.4,-4.4 -10.29961,-6.84961 -16.5996,-6.84961 z m -10.4502,9.849609 h 1.40039 c 0.55,0 1.09941,0.05 1.64941,1.25 0.65,1.45 2.1,5.100195 2.25,5.450195 0.2,0.350001 0.30079,0.799805 0.0508,1.299805 -0.25,0.5 -0.35,0.8 -0.75,1.25 -0.35,0.45 -0.80058,0.950781 -1.10058,1.300781 -0.35,0.350001 -0.74981,0.75 -0.29981,1.5 0.45,0.75 1.89961,3.14961 4.09961,5.09961 2.8,2.5 5.2002,3.30039 5.9502,3.65039 0.75,0.350001 1.15058,0.299805 1.60058,-0.200195 0.45,-0.5 1.84961,-2.150391 2.34961,-2.900391 0.5,-0.75 1.00039,-0.599609 1.65039,-0.349609 0.7,0.25 4.29981,2.049414 5.04981,2.399414 0.75,0.35 1.24941,0.550587 1.39941,0.850586 0.2,0.4 0.20059,1.849609 -0.39941,3.5996091 -0.6,1.700001 -3.6,3.4 -5,3.5 -1.35,0.100001 -2.60059,0.600392 -8.85059,-1.849609 -7.5,-2.95 -12.249605,-10.6503911 -12.599605,-11.1503911 -0.35,-0.5 -3,-3.999414 -3,-7.649414 0,-3.649999 1.899609,-5.40039 2.599609,-6.15039 0.7,-0.75 1.450196,-0.900391 1.950196,-0.900391 z"
     id="path2-3"
     style="fill:#ffffff;stroke-width:0.5" />
  <g
     transform="matrix(0.09901284,0,0,0.09901284,1.2231381,0.54015368)"
     id="g19"
     style="fill:#3b5af5;fill-opacity:1">
    <path
       inkscape:connector-curvature="0"
       id="path2"
       d="m 256,49.471 c 67.266,0 75.233,0.257 101.8,1.469 24.562,1.121 37.9,5.224 46.778,8.674 a 78.052,78.052 0 0 1 28.966,18.845 78.052,78.052 0 0 1 18.845,28.966 c 3.45,8.877 7.554,22.216 8.674,46.778 1.212,26.565 1.469,34.532 1.469,101.8 0,67.268 -0.257,75.233 -1.469,101.8 -1.121,24.562 -5.225,37.9 -8.674,46.778 a 83.427,83.427 0 0 1 -47.811,47.811 c -8.877,3.45 -22.216,7.554 -46.778,8.674 -26.56,1.212 -34.527,1.469 -101.8,1.469 -67.273,0 -75.237,-0.257 -101.8,-1.469 -24.562,-1.121 -37.9,-5.225 -46.778,-8.674 A 78.051,78.051 0 0 1 78.456,433.547 78.053,78.053 0 0 1 59.611,404.581 c -3.45,-8.877 -7.554,-22.216 -8.674,-46.778 -1.212,-26.564 -1.469,-34.532 -1.469,-101.8 0,-67.268 0.257,-75.233 1.469,-101.8 1.121,-24.562 5.224,-37.9 8.674,-46.778 A 78.052,78.052 0 0 1 78.458,78.458 78.053,78.053 0 0 1 107.424,59.613 c 8.877,-3.45 22.216,-7.554 46.778,-8.674 26.565,-1.212 34.532,-1.469 101.8,-1.469 m 0,-45.391 c -68.418,0 -77,0.29 -103.866,1.516 -26.815,1.224 -45.127,5.482 -61.151,11.71 A 123.488,123.488 0 0 0 46.365,46.362 123.488,123.488 0 0 0 17.3,90.982 C 11.077,107.007 6.819,125.319 5.6,152.134 4.369,179 4.079,187.582 4.079,256 c 0,68.418 0.29,77 1.521,103.866 1.224,26.815 5.482,45.127 11.71,61.151 a 123.489,123.489 0 0 0 29.057,44.62 123.486,123.486 0 0 0 44.62,29.057 c 16.025,6.228 34.337,10.486 61.151,11.71 26.87,1.226 35.449,1.516 103.866,1.516 68.417,0 77,-0.29 103.866,-1.516 26.815,-1.224 45.127,-5.482 61.151,-11.71 a 128.817,128.817 0 0 0 73.677,-73.677 c 6.228,-16.025 10.486,-34.337 11.71,-61.151 1.226,-26.87 1.516,-35.449 1.516,-103.866 0,-68.417 -0.29,-77 -1.516,-103.866 -1.224,-26.815 -5.482,-45.127 -11.71,-61.151 A 123.486,123.486 0 0 0 465.641,46.363 123.487,123.487 0 0 0 421.018,17.3 C 404.993,11.077 386.681,6.819 359.866,5.6 333,4.369 324.418,4.079 256,4.079 v 0 z"
       style="fill:#3b5af5;fill-opacity:1" />
    <path
       inkscape:connector-curvature="0"
       id="path4"
       d="M 256,126.635 A 129.365,129.365 0 1 0 385.365,256 129.365,129.365 0 0 0 256,126.635 Z m 0,213.338 A 83.973,83.973 0 1 1 339.974,256 83.974,83.974 0 0 1 256,339.973 Z"
       style="fill:#3b5af5;fill-opacity:1" />
    <circle
       id="circle6"
       r="30.23"
       cy="121.524"
       cx="390.47601"
       style="fill:#3b5af5;fill-opacity:1" />
  </g>
</svg>
