<?xml version="1.0" encoding="UTF-8"?> <svg xmlns="http://www.w3.org/2000/svg" width="52" height="52" viewBox="0 0 52 52" fill="none"> <g clip-path="url(#clip0)"> <path d="M26 51.999C40.3594 51.999 52 40.3584 52 25.999C52 11.6396 40.3594 -0.000976562 26 -0.000976562C11.6406 -0.000976562 0 11.6396 0 25.999C0 40.3584 11.6406 51.999 26 51.999Z" fill="#3B5AF5"></path> <path d="M41.5348 28.0917V38.8109H35.32V28.8101C35.32 26.299 34.4227 24.5841 32.1726 24.5841C30.4554 24.5841 29.4353 25.7386 28.9848 26.8565C28.8212 27.2561 28.779 27.8108 28.779 28.3712V38.8105H22.5638C22.5638 38.8105 22.6472 21.8723 22.5638 20.119H28.7795V22.7678C28.767 22.7886 28.7494 22.809 28.7382 22.829H28.7795V22.7678C29.6054 21.4969 31.0783 19.6801 34.3806 19.6801C38.4693 19.6801 41.5348 22.3516 41.5348 28.0917ZM16.0622 11.1091C13.9362 11.1091 12.5453 12.5046 12.5453 14.3381C12.5453 16.1327 13.8959 17.5685 15.9806 17.5685H16.0209C18.1886 17.5685 19.5364 16.1327 19.5364 14.3381C19.4952 12.5046 18.1886 11.1091 16.0622 11.1091ZM12.9147 38.8109H19.1276V20.119H12.9147V38.8109Z" fill="#F1F2F2"></path> </g> <defs> <clipPath id="clip0"> <rect width="52" height="52" fill="white"></rect> </clipPath> </defs> </svg> 