<?xml version="1.0" encoding="UTF-8" standalone="no"?>
<svg
   xmlns:dc="http://purl.org/dc/elements/1.1/"
   xmlns:cc="http://creativecommons.org/ns#"
   xmlns:rdf="http://www.w3.org/1999/02/22-rdf-syntax-ns#"
   xmlns:svg="http://www.w3.org/2000/svg"
   xmlns="http://www.w3.org/2000/svg"
   xmlns:sodipodi="http://sodipodi.sourceforge.net/DTD/sodipodi-0.dtd"
   xmlns:inkscape="http://www.inkscape.org/namespaces/inkscape"
   width="171"
   height="34"
   viewBox="0 0 171 34"
   fill="none"
   version="1.1"
   id="svg24"
   sodipodi:docname="logo_aspirity_svg.svg"
   inkscape:version="0.92.4 (5da689c313, 2020-01-14)">
  <metadata
     id="metadata30">
    <rdf:RDF>
      <cc:Work
         rdf:about="">
        <dc:format>image/svg+xml</dc:format>
        <dc:type
           rdf:resource="http://purl.org/dc/dcmitype/StillImage" />
      </cc:Work>
    </rdf:RDF>
  </metadata>
  <defs
     id="defs28" />
  <sodipodi:namedview
     pagecolor="#ffffff"
     bordercolor="#666666"
     borderopacity="1"
     objecttolerance="10"
     gridtolerance="10"
     guidetolerance="10"
     inkscape:pageopacity="0"
     inkscape:pageshadow="2"
     inkscape:window-width="1312"
     inkscape:window-height="740"
     id="namedview26"
     showgrid="false"
     inkscape:zoom="2.6666667"
     inkscape:cx="-2.6057609"
     inkscape:cy="47.754684"
     inkscape:window-x="54"
     inkscape:window-y="0"
     inkscape:window-maximized="1"
     inkscape:current-layer="svg24" />
  <g
     transform="matrix(0.03348896,0,0,0.03348896,-10.514527,-8.503659)"
     id="g1571">
    <path
       inkscape:connector-curvature="0"
       id="path1560"
       d="m 443,1267.4525 c -16.26139,-2.0367 -37.15229,-5.9607 -52.95702,-9.9471 -17.49776,-4.4134 -38.4989,-11.1449 -39.8503,-12.7732 -0.67983,-0.8192 -1.10684,-11.2628 -1.1961,-29.2531 -0.2164,-43.6184 -0.21566,-43.6361 1.93742,-46.4379 l 1.88954,-2.4587 12.83823,6.147 c 40.04791,19.1752 72.44882,27.3777 108.33823,27.4264 37.95764,0.052 54.34184,-9.22 55.7757,-31.5625 0.87189,-13.5859 -4.42534,-23.823 -15.42029,-29.8004 -6.5002,-3.5339 -23.21241,-8.4762 -49.85541,-14.744 -12.1,-2.8465 -25.375,-6.0751 -29.5,-7.1747 -49.65249,-13.236 -74.06196,-32.2943 -85.65127,-66.8743 -2.828,-8.4381 -2.84847,-8.6783 -2.81319,-33 0.0345,-23.79438 0.11391,-24.75311 2.75673,-33.28832 12.95924,-41.85307 46.06791,-66.18595 99.70773,-73.27919 16.44743,-2.17498 56.88266,-1.40887 77,1.45888 23.60853,3.36542 49.73111,8.48532 67.25,13.18066 l 3.75,1.00506 V 962.41354 998.75 l -3.0284,0.60568 c -2.19988,0.43998 -5.68804,-0.45066 -12.75,-3.25547 -20.28468,-8.0565 -42.21408,-14.05402 -63.2216,-17.29062 -13.18687,-2.03169 -50.64361,-1.70569 -59.5,0.51785 -20.03887,5.03108 -27.67222,13.31179 -27.74945,30.10276 -0.0442,9.6151 1.57398,13.8234 7.30718,19.003 8.00816,7.2349 17.62799,10.3774 55.44227,18.1112 43.64457,8.9263 59.08122,13.5679 78.69077,23.6614 22.64287,11.6547 35.0121,25.3794 42.40267,47.049 3.7446,10.9794 5.40699,22.5572 5.40254,37.6262 -0.008,27.1602 -6.15903,49.2091 -19.00318,68.119 -5.19459,7.6478 -18.0668,19.6623 -26.99738,25.1986 -14.04878,8.7091 -36.25023,16.176 -55.56612,18.6882 -14.05142,1.8276 -62.45546,2.1906 -75.4293,0.5657 z m 739,0.5087 c -57.732,-5.4713 -101.3442,-37.4161 -115.9919,-84.9612 -5.622,-18.2485 -6.5081,-25.2607 -6.5081,-51.5 0,-25.7648 0.7318,-31.5705 6.1605,-48.8747 9.9452,-31.7011 30.838,-56.3481 60.2404,-71.0652 13.9578,-6.9865 22.6364,-10.0231 37.9484,-13.27772 11.6728,-2.48113 14.5058,-2.69259 36.6507,-2.73568 26.4736,-0.0515 33.9897,0.91781 51,6.5772 18.686,6.217 33.8743,15.35 47.7139,28.6915 17.2847,16.6624 29.405,38.8411 34.834,63.7417 1.7818,8.1726 2.2462,14.2161 2.6081,33.9429 0.2422,13.2 0.078,24.525 -0.3654,25.1667 -0.598,0.866 -25.0988,1.3558 -95.0822,1.9006 -51.8521,0.4037 -94.4836,1.0689 -94.7366,1.4783 -0.7207,1.1661 1.1833,9.9576 3.4942,16.1339 6.3083,16.8605 19.6672,28.5669 38.0224,33.319 14.0978,3.6499 40.8496,3.6512 60.9061,0 19.6667,-3.5772 43.7056,-11.7933 63.466,-21.6915 5.4233,-2.7166 10.4858,-4.6993 11.25,-4.4061 1.1459,0.4398 1.3895,6.1388 1.3895,32.5079 v 31.9747 l -2.25,1.587 c -3.332,2.3501 -33.4616,11.9235 -47.2185,15.0032 -22.4763,5.0317 -36.4107,6.6351 -61.0315,7.0227 -12.65,0.1991 -27.275,-0.043 -32.5,-0.5383 z m 67.779,-173.8055 c -1.0095,-14.1101 -11.0465,-28.7665 -23.9994,-35.0451 -15.4756,-7.5014 -40.5987,-6.2957 -54.2279,2.6025 -5.929,3.8709 -13.1036,10.9113 -16.4428,16.1353 -2.8905,4.5218 -8.1089,18.4083 -8.1089,21.5779 0,1.4113 5.3293,1.5737 51.6344,1.5737 h 51.6343 z M 695,1261.3259 c -1.375,-0.2901 -2.83061,-1.0447 -3.23469,-1.6767 -1.19887,-1.8753 -0.93335,-253.4667 0.26987,-255.7149 0.99749,-1.8639 2.52089,-1.9343 41.83595,-1.9343 h 40.80076 l 0.66406,63.1649 c 0.36523,34.7407 0.66405,92.2709 0.66405,127.845 0,63.8731 -0.0255,64.7032 -2.04389,66.5298 -1.90116,1.7205 -4.64199,1.8659 -39.25,2.0817 -20.46336,0.1276 -38.33111,-0.01 -39.70611,-0.2955 z m 240,-0.2893 c -25.60803,-1.2816 -40.6662,-6.7641 -53.62183,-19.5229 -8.14232,-8.0187 -12.83282,-16.3522 -17.01232,-30.2254 -2.57748,-8.5555 -2.66807,-9.7684 -3.42017,-45.7883 -0.4249,-20.35 -0.81151,-51.2609 -0.85912,-68.691 -0.0615,-22.5118 -0.41592,-31.8945 -1.22366,-32.3937 -0.6254,-0.3866 -8.6129,-0.8874 -17.75,-1.113 -9.13709,-0.2255 -17.63208,-0.6211 -18.87775,-0.879 l -2.26484,-0.4689 0.26484,-29.7272 L 820.5,1002.5 840,1001.9453 c 10.725,-0.3052 19.54868,-0.6427 19.60819,-0.75 0.0595,-0.1074 0.35073,-6.1578 0.64718,-13.4453 0.69897,-17.18231 0.68587,-17.15246 7.14348,-16.27512 20.72172,2.81529 31.0585,3.64578 52.20589,4.19439 l 24.10474,0.62532 0.59681,11.8698 c 0.32824,6.52839 0.89726,12.35591 1.26448,12.95011 0.46605,0.7541 13.02642,0.9804 41.5952,0.7495 35.32633,-0.2855 41.05933,-0.1277 41.89023,1.1526 0.5754,0.8867 0.8584,12.8631 0.7033,29.7709 -0.2189,23.8613 -0.4942,28.4357 -1.7595,29.2347 -0.8472,0.535 -13.2898,0.9538 -28.59189,0.9625 -14.90054,0.01 -33.2723,0.3117 -40.82614,0.674 l -13.73425,0.6587 0.40955,58.5913 c 0.44728,63.9883 0.39569,63.4241 6.32587,69.1719 5.39757,5.2315 10.53875,6.0552 41.41686,6.6354 16.1262,0.3031 28.017,0.9329 28.75,1.5229 0.9466,0.7618 1.25,7.8465 1.25,29.1924 0,20.9823 -0.3195,28.6178 -1.25,29.8743 -1.121,1.5136 -4.8623,1.7301 -36.25,2.0973 -19.25,0.2252 -41.975,0.06 -50.5,-0.3663 z M 695,970.33072 c -1.375,-0.29279 -2.83061,-1.04948 -3.23469,-1.68154 -1.17407,-1.83647 -0.92114,-62.48949 0.26987,-64.71492 0.9976,-1.86402 2.52275,-1.93426 42,-1.93426 H 775 v 33.44098 c 0,24.432 -0.31482,33.63556 -1.16861,34.16323 -1.35848,0.83958 -75.1085,1.51926 -78.83139,0.72651 z m 234.5,-13.40305 c -27.84736,-1.22035 -58.49526,-5.9533 -87.5,-13.51261 -8.25832,-2.15231 -14.26488,-4.27401 -15.46995,-5.46446 -1.89855,-1.87553 -1.96146,-3.29605 -1.73586,-39.19833 0.12874,-20.48875 0.48304,-38.03977 0.78733,-39.00227 0.30429,-0.9625 1.08546,-1.75 1.73593,-1.75 0.65047,0 6.13264,2.20648 12.18261,4.90329 22.05806,9.83252 48.02073,17.50769 70.04993,20.7084 16.06143,2.33362 45.24474,2.34605 58.85145,0.0251 39.63306,-6.76049 59.40916,-28.28586 54.83296,-59.68318 -1.3436,-9.21858 -3.6929,-15.08573 -8.8584,-22.12246 -7.2819,-9.91991 -24.32197,-19.18267 -41.30994,-22.45551 -8.19675,-1.57915 -40.30602,-3.30722 -62.23427,-3.34934 -7.51752,-0.0145 -14.38002,-0.2994 -15.25,-0.63325 C 894.18385,774.85657 894,770.96985 894,741.95203 c 0,-25.17946 0.29141,-33.01805 1.25,-33.62351 0.6875,-0.43423 16.55,-1.06997 35.25,-1.41276 36.45851,-0.66831 43.58671,-1.50022 55.99293,-6.53475 12.82754,-5.2055 20.04557,-11.85707 25.13167,-23.15952 2.0869,-4.63747 2.3754,-6.7768 2.3754,-17.61565 0,-12.10122 -0.067,-12.47095 -3.5013,-19.3359 -4.5752,-9.14529 -11.27184,-15.36652 -21.80182,-20.25416 -11.768,-5.46227 -20.44994,-7.15524 -39.81052,-7.76297 -31.50802,-0.98905 -60.05748,4.03651 -94.17126,16.57694 -6.46029,2.37485 -11.07738,3.56429 -11.88867,3.06273 -1.06216,-0.65664 -1.32643,-7.99269 -1.32643,-36.82082 0,-31.69946 0.19157,-36.19235 1.60341,-37.60393 1.91298,-1.91263 14.78375,-5.32801 35.64145,-9.45778 62.65075,-12.40471 126.74124,-11.28578 170.29204,2.97305 30.5176,9.99164 49.1761,24.63211 60.8171,47.72041 12.9149,25.61486 12.474,63.56158 -1.0404,89.53792 -9.2173,17.71693 -29.3506,33.49002 -52.5636,41.18015 -2.8875,0.95659 -5.25,2.07575 -5.25,2.48701 0,0.41127 3.9375,2.23517 8.75,4.0531 35.6324,13.46025 56.2744,35.06173 65.0054,68.02693 3.3416,12.61709 4.2795,38.71773 1.8874,52.52701 -6.8437,39.50765 -31.3985,67.89733 -73.133,84.55455 -21.3168,8.50805 -51.6304,14.29336 -81.0098,15.4606 -7.15,0.28407 -15.925,0.65723 -19.5,0.82924 -3.575,0.172 -14.15,-0.0225 -23.5,-0.43225 z m 322,-68.35344 c -17.9126,-4.63228 -31.1816,-12.41799 -45.4061,-26.64253 -4.9125,-4.91243 -9.4182,-8.9317 -10.0128,-8.9317 -0.7235,0 -1.0862,4.71361 -1.0964,14.25 -0.01,7.8375 -0.3459,14.75349 -0.75,15.36888 -1.0886,1.65788 -46.9103,2.47694 -48.2502,0.86247 -0.6563,-0.79084 -0.6513,-4.54367 0.015,-11.08839 0.5538,-5.44113 0.848,-25.41796 0.6537,-44.39296 -0.3979,-38.87764 -1.0332,-43.25671 -8.6561,-59.6733 -4.7947,-10.32566 -8.0621,-15.05536 -18.5665,-26.87626 -4.6367,-5.21785 -8.4304,-9.92401 -8.4304,-10.45813 0,-0.53413 2.1737,-3.37137 4.8304,-6.305 9.4838,-10.47233 14.5837,-19.50039 18.8563,-33.37984 l 2.7112,-8.80747 -0.026,-39.5 c -0.025,-37.5328 -0.1356,-39.89842 -2.2219,-47.5 -3.7358,-13.61204 -9.8416,-24.93623 -19.5891,-36.33165 l -4.5607,-5.33166 v -13.21834 c 0,-8.94761 0.3877,-13.60606 1.2,-14.41835 1.7236,-1.72365 79.8764,-1.72365 81.6,0 0.9088,0.90883 1.2,17.04444 1.2,66.5 0,35.915 0.3516,65.3 0.7813,65.3 0.4297,0 3.4672,-2.75283 6.75,-6.1174 7.5864,-7.77545 18.6901,-16.71819 25.8302,-20.80336 13.0422,-7.462 32.4763,-12.07924 50.8419,-12.07924 28.7632,0 50.9706,9.08143 70.8223,28.96196 10.3332,10.34827 16.7109,19.18196 23.5108,32.56499 10.6998,21.05818 14.2986,36.8709 15.1286,66.47305 0.9516,33.94126 -2.1144,54.09288 -11.5653,76.01441 -15.0247,34.85009 -44.6221,61.14345 -74.9057,66.54377 -4.5566,0.81254 -14.6265,1.36622 -24.6941,1.35776 -14.5221,-0.0122 -18.3118,-0.35352 -26,-2.34171 z m 4.8098,-60.59999 c 32.0511,-3.67212 48.7056,-35.54891 44.6524,-85.46435 -1.7207,-21.1898 -6.656,-35.30705 -15.9812,-45.71308 C 1275.8914,686.6537 1264.5751,682 1249,682 c -26.8679,0 -43.8181,14.90588 -50.5539,44.45666 -3.884,17.03992 -3.654,43.61901 0.5195,60.04334 6.0915,23.97193 20.9752,39.15787 40.6097,41.43429 3.8086,0.44157 7.1497,0.85831 7.4247,0.92608 0.275,0.0678 4.4644,-0.33099 9.3098,-0.88613 z m -757.97186,49.02713 c -1.18913,-0.47952 -2.40806,-1.6885 -2.70874,-2.68661 -4.93167,-16.37129 -60.81237,-230.32845 -64.69123,-247.69114 -1.21775,-5.45095 -1.17679,-5.97582 0.56575,-7.25 1.5156,-1.10823 9.27992,-1.37362 40.18741,-1.37362 35.17667,0 38.45195,0.14332 40.05887,1.75291 0.9625,0.96411 2.81616,6.25161 4.11923,11.75 9.60007,40.50788 36.28889,149.38127 37.01487,150.99709 0.85919,1.9123 0.94112,1.89037 1.86841,-0.5 0.53341,-1.375 9.64322,-38.05 20.24405,-81.5 10.60082,-43.45 19.90518,-79.675 20.67636,-80.5 1.20648,-1.29068 6.24617,-1.45234 36.11461,-1.15848 19.09186,0.18784 35.02838,0.63875 35.41449,1.00202 0.6122,0.57599 8.40737,31.85054 34.26307,137.46477 6.04023,24.67285 6.93189,27.62804 8.01066,26.54928 0.26166,-0.26166 9.47948,-36.84441 20.48405,-81.29499 11.00457,-44.45058 20.46456,-81.36899 21.0222,-82.04091 0.73091,-0.8807 8.48048,-1.37138 27.76595,-1.75805 C 812.18613,618.0932 833,618.7775 833,620.54731 833,621.72784 822.16498,662.93992 802.38358,737 c -7.8704,29.46615 -20.44664,77.50132 -31.3544,119.7586 -2.59218,10.04223 -5.04634,18.59223 -5.4537,19 -0.40735,0.40777 -21.15561,0.86706 -46.10722,1.02065 -44.76322,0.27554 -45.38108,0.25216 -46.45691,-1.75805 -0.91961,-1.7183 -12.5312,-48.10331 -35.76235,-142.86047 -4.68599,-19.1136 -5.63425,-22.10882 -6.67119,-21.07188 -0.29201,0.29202 -3.86294,14.22898 -7.93539,30.97104 -9.56025,39.30267 -27.13865,111.99139 -29.73966,122.97694 -1.11168,4.69526 -2.41577,9.1752 -2.89798,9.95543 -0.54793,0.88657 -3.61978,1.69341 -8.19076,2.15134 -10.3087,1.03277 -80.86038,0.91256 -83.47608,-0.14223 z M 699.53122,601.83025 C 666.7002,598.08866 641.03247,576.32966 630.72268,543.5 c -6.09508,-19.40865 -6.10335,-19.57083 -5.9299,-116.30594 0.0871,-48.56827 0.42089,-88.73077 0.74179,-89.25 0.3507,-0.56743 17.06719,-0.94406 41.902,-0.94406 32.78676,0 41.54242,0.26976 42.40278,1.30643 0.75387,0.90836 1.18625,26.73191 1.41901,84.75 0.3069,76.49606 0.48297,83.94313 2.11475,89.44357 5.12293,17.26852 16.51329,25.70513 34.66625,25.6766 23.77673,-0.0374 40.32072,-14.24877 48.51721,-41.6766 2.46586,-8.25148 2.75633,-11.07923 3.49254,-34 0.44165,-13.75 0.83628,-46.74208 0.87695,-73.31574 0.0478,-31.25044 0.43957,-48.99893 1.10912,-50.25 0.9972,-1.86328 2.51569,-1.93426 41.37756,-1.93426 35.04026,0 40.50972,0.20164 41.61569,1.53426 1.01937,1.22827 1.16591,19.78662 0.73475,93.05435 -0.29621,50.33606 -0.79746,91.77901 -1.1139,92.09544 -0.31644,0.31644 -7.7645,1.88241 -16.55125,3.47994 -21.28501,3.86986 -43.14238,9.29787 -44.20713,10.9783 -0.47315,0.74674 -0.86717,13.84521 -0.87559,29.10771 L 823,595 h -10.36916 -10.36916 l -0.61983,-3.75 c -0.34091,-2.0625 -0.62479,-8.7375 -0.63084,-14.83333 -0.006,-6.09584 -0.29874,-11.37107 -0.65042,-11.72274 -0.35167,-0.35168 -4.27483,2.78054 -8.71812,6.96047 -20.83954,19.60434 -39.23394,28.28435 -64.24289,30.31514 -14.24875,1.15703 -16.59654,1.1453 -27.86836,-0.13929 z M 436.12234,594.25 434.02311,592.5 433.34836,456.25 432.67362,320 h -54.22603 c -50.16374,0 -54.38598,-0.1311 -56.36126,-1.75 -2.11133,-1.73041 -2.13216,-2.11375 -1.86078,-34.25 L 320.5,251.5 478.89381,251.24691 c 116.23649,-0.18574 158.75476,0.0465 159.75,0.87244 1.86068,1.54423 2.00891,64.82793 0.15619,66.68065 -0.90466,0.90466 -14.93333,1.2 -57,1.2 H 526 v 136.42857 c 0,122.69264 -0.15821,136.58679 -1.57143,138 -1.37906,1.37906 -6.75183,1.57143 -43.88921,1.57143 -38.83629,0 -42.4905,-0.14397 -44.41702,-1.75 z"
       style="fill:#5ba3d4" />
    <path
       inkscape:connector-curvature="0"
       id="path1558"
       d="m 1184.702,1266.9849 c -65.8685,-5.9285 -107.7809,-40.3121 -121.2686,-99.4849 -2.5262,-11.0829 -3.1154,-48.8959 -0.9897,-63.5111 3.7398,-25.7117 14.9795,-49.7995 31.3195,-67.1208 17.2498,-18.2857 40.2051,-30.443 69.0861,-36.5887 11.7646,-2.50347 14.4018,-2.69508 37.6507,-2.73571 27.5446,-0.0481 34.875,0.87776 51.9153,6.55741 18.1248,6.0411 32.0564,14.4667 45.7539,27.6712 17.3236,16.6999 29.0419,38.5207 34.4918,64.2277 1.4518,6.8481 1.8056,13.2614 1.8205,33 l 0.018,24.5 -73,0.7202 c -40.15,0.3961 -82.675,0.8461 -94.5,1 l -21.5,0.2798 -0.3203,3.3431 c -0.4904,5.1189 4.3879,18.8737 9.3595,26.3894 10.1645,15.3661 27.3233,23.9809 51.169,25.69 32.0383,2.2964 66.681,-5.4444 103.5421,-23.1358 7.0126,-3.3658 13.037,-5.8327 13.3876,-5.4821 0.8952,0.8952 1.7869,55.6173 0.9767,59.9364 -0.6189,3.2988 -1.1341,3.7191 -7.3899,6.0284 -20.4829,7.5612 -47.2146,14.2007 -69.3456,17.2237 -13.7182,1.8739 -48.6262,2.7114 -62.1771,1.4918 z m 66.3135,-165.5036 c 1.6746,-2.0178 0.7984,-10.2204 -1.9165,-17.9422 -4.526,-12.8725 -14.2349,-22.9839 -26.3454,-27.4374 -13.1362,-4.8307 -35.163,-3.7512 -48.0724,2.3559 -7.5706,3.5815 -18.5949,14.0199 -22.4138,21.2226 -4.5549,8.591 -7.8085,19.9629 -6.2491,21.8419 1.8752,2.2594 103.1209,2.22 104.9972,-0.041 z M 435,1265.3528 c -22.0198,-2.9579 -56.84886,-11.1787 -76.52337,-18.0621 L 350.5,1244.5 l -0.2623,-36.0839 c -0.32912,-45.2762 -1.74803,-42.3869 16.52046,-33.6402 39.53326,18.928 72.3923,27.3103 107.24184,27.3573 22.79915,0.031 35.49446,-3.029 46.63412,-11.2391 6.93323,-5.1099 9.61224,-10.757 10.17317,-21.4441 0.60708,-11.5664 -1.48352,-18.17 -7.90037,-24.9549 -3.08941,-3.2666 -7.12184,-6.2114 -10.68455,-7.8027 -8.012,-3.5787 -25.89979,-8.8364 -44.72237,-13.1451 -39.41706,-9.023 -54.8518,-13.7214 -70,-21.3081 -12.59712,-6.3091 -19.88876,-11.441 -28,-19.7064 -8.25798,-8.4151 -12.60099,-15.3988 -17.21469,-27.6818 -4.975,-13.2449 -5.53099,-17.8193 -5.02521,-41.3449 0.48091,-22.36856 1.04532,-25.59162 7.05397,-40.28218 5.69507,-13.92387 19.98308,-31.02175 33.5823,-40.18658 9.61856,-6.48217 23.55805,-12.60534 36.24865,-15.92288 19.96092,-5.21812 24.03774,-5.61768 56.85498,-5.57213 25.98535,0.0361 32.83681,0.37194 46.287,2.26912 21.17485,2.98678 39.50098,6.44107 55.213,10.40709 l 13,3.28146 0.2629,34.70227 0.26291,34.70226 -3.27465,0.61433 c -2.24831,0.42179 -4.83804,-0.0589 -8.2629,-1.53363 C 549.7017,981.00602 500.21857,972.47428 469.06736,976.08466 441.37956,979.29365 429,989.66495 429,1009.6522 c 0,9.1936 2.12267,14.419 8.02253,19.7492 8.7105,7.8694 18.76758,11.1757 59.47747,19.5531 43.0048,8.8498 56.83584,13.0101 75.7233,22.7772 18.18813,9.4055 29.18673,20.1132 36.73985,35.7683 6.34655,13.1543 8.2287,22.2947 8.77838,42.631 1.16527,43.1118 -10.54549,71.4645 -38.24153,92.5856 -13.33586,10.17 -41.02724,20.4716 -62.5,23.2509 -11.56117,1.4964 -69.51822,1.0619 -82,-0.6147 z m 262.8751,-5.0175 -4.6249,-0.4347 -0.72204,-9.2003 c -1.0247,-13.0568 0.5107,-243.8011 1.63665,-245.9619 0.85638,-1.6434 3.54741,-1.744 40.12657,-1.5 L 773.5,1003.5 l 0.2538,127.1244 c 0.20153,100.9392 -0.004,127.3361 -1,128.1523 -1.28526,1.0538 -65.93251,2.3994 -74.8787,1.5586 z M 916.5,1258.0141 c -25.07416,-5.7262 -40.23561,-17.7898 -47.87889,-38.0961 -5.64261,-14.991 -5.71845,-16.0488 -6.32659,-88.2329 -0.56157,-66.6559 -0.56794,-66.818 -2.67871,-68.1352 -1.40541,-0.877 -7.82371,-1.545 -19.11581,-1.9897 -9.35,-0.3681 -17.34476,-1.0121 -17.76614,-1.4309 -0.42138,-0.4189 -0.64638,-13.3318 -0.5,-28.6954 L 822.5,1003.5 842,1003 l 19.5,-0.5 0.75904,-14.4257 c 0.41747,-7.93414 0.97092,-14.63759 1.22989,-14.89656 0.25896,-0.25897 7.1174,0.33481 15.24096,1.31951 8.12356,0.9847 25.79511,2.06315 39.27011,2.39655 l 24.5,0.6062 0.5,12.5 0.5,12.5 42,0.5 42,0.5 0.2661,27.9339 c 0.1464,15.3636 -0.079,28.2773 -0.5,28.6972 -0.4213,0.4198 -17.6411,1.0319 -38.2661,1.3601 -20.625,0.3282 -39.44692,0.8347 -41.8265,1.1255 l -4.32649,0.5288 0.37894,58.6772 c 0.34065,52.7484 0.55439,59.1306 2.11534,63.1631 5.14129,13.2821 14.3461,15.963 54.92381,15.9969 l 20.7651,0.017 -0.2651,29.25 -0.2651,29.25 -48,0.1705 c -43.28311,0.1538 -48.78615,-0.01 -56,-1.6564 z m -214,-289.92 -9,-0.5941 -0.3141,-19.5 c -0.17275,-10.725 -0.0149,-25.0125 0.3507,-31.75 L 694.20139,904 H 733.60069 773 v 32 32 h -27.875 c -15.33125,0 -29.16875,0.15485 -30.75,0.3441 -1.58125,0.18926 -6.925,0.0768 -11.875,-0.25 z M 929.44656,954.91764 C 911.73961,954.17212 909.81049,953.96965 886,950.35768 c -16.63724,-2.52382 -40.38968,-7.6899 -52.37073,-11.39047 l -6.49002,-2.00456 -0.72041,-5.73133 c -0.78228,-6.22365 0.15017,-70.13366 1.03619,-71.01968 0.29779,-0.29779 5.82973,1.74459 12.2932,4.53862 21.76347,9.40792 44.03456,16.15807 65.29244,19.78949 12.74581,2.17732 45.86244,3.06056 57.45933,1.53247 22.12599,-2.91549 37.19362,-9.04516 48.536,-19.74495 11.9162,-11.24123 16.551,-25.17306 14.1378,-42.49811 -2.9924,-21.48447 -18.0938,-36.88833 -43.33482,-44.20289 -11.77727,-3.41292 -22.51476,-4.40308 -56.58898,-5.2184 L 896,773.70798 V 741.35399 709 h 28.77623 c 15.82693,0 32.58943,-0.4662 37.25,-1.036 25.67827,-3.13943 42.70427,-12.55587 50.19967,-27.76358 3.1007,-6.29125 3.2916,-7.32295 3.6048,-19.48548 l 0.3308,-12.8425 -3.5464,-7.46769 c -2.2856,-4.8128 -5.3485,-9.22294 -8.6152,-12.40485 -5.70654,-5.55835 -18.17856,-12.13637 -27.4999,-14.50408 -20.6741,-5.25141 -54.12775,-4.41063 -83.43449,2.09692 -9.48963,2.10718 -40.76087,11.91339 -47.2424,14.81455 -2.62713,1.17591 -3.00013,-4.42392 -2.64404,-39.69475 0.27195,-26.93647 0.54984,-31.92932 1.82093,-32.71698 2.1689,-1.344 24.29679,-6.53617 40,-9.38574 69.04806,-12.52974 138.7688,-8.70326 179.4825,9.85054 20.0919,9.15618 35.2678,23.06867 43.8857,40.23217 6.3701,12.68665 10.4013,35.33953 9.1305,51.30747 -3.1234,39.24643 -22.0409,63.45969 -60.2487,77.11466 -5.2828,1.88799 -9.25,3.86819 -9.25,4.61702 0,1.45085 0.1002,1.49898 15.017,7.21073 32.6886,12.51676 54.4474,37.15782 60.9839,69.06218 4.8688,23.76414 2.8425,50.72538 -5.3336,70.9673 -9.7125,24.04595 -29.6225,43.78995 -56.9458,56.47109 -32.1514,14.92199 -78.46265,21.74033 -132.27494,19.47466 z m 329.88754,-66.32495 c -21.3669,-4.09584 -34.9497,-11.38372 -52.0142,-27.90828 -13.7808,-13.34482 -13.7435,-13.36069 -14.0956,6.00945 l -0.2757,15.16864 -5.2243,0.62286 c -2.8734,0.34257 -13.0993,0.48601 -22.7243,0.31875 l -17.5,-0.30411 0.2034,-4 c 0.9553,-18.79205 1.1414,-75.31226 0.2688,-81.69296 -3.0945,-22.63016 -10.897,-39.09378 -26.2222,-55.33008 -4.8125,-5.09862 -8.75,-9.79367 -8.75,-10.43345 0,-0.63978 2.1763,-3.49879 4.8362,-6.35337 9.5147,-10.21095 15.2312,-20.78271 19.3486,-35.78241 2.2393,-8.15782 2.3023,-9.52535 2.1183,-46.00737 -0.2066,-40.95879 -0.502,-43.72075 -6.2702,-58.63767 -3.387,-8.75904 -8.9574,-17.73794 -15.5608,-25.08253 L 1113,554.20614 V 540.60307 527 h 40 40 v 64.91821 c 0,35.70502 0.2731,65.63002 0.607,66.5 1.1131,2.90063 3.3415,1.64207 10.5742,-5.97214 13.3984,-14.10501 29.7704,-24.20694 46.3188,-28.57987 10.1122,-2.67217 35.9419,-3.71458 47.1682,-1.90358 26.9152,4.34188 50.3589,20.63483 67.5225,46.92696 6.4979,9.9537 9.9985,17.48 14.7747,31.76513 6.2824,18.79003 7.2998,27.74133 6.7766,59.62175 -0.4131,25.1699 -0.6411,27.9779 -3.022,37.22354 -5.1524,20.0084 -10.8342,32.94015 -21.0198,47.8409 -14.6608,21.44776 -34.4485,35.79134 -57.6683,41.80227 -10.0324,2.59711 -35.4973,3.40485 -45.6978,1.44952 z m 2.3854,-59.73147 c 13.284,-2.52051 26.4523,-13.45828 32.8354,-27.27365 11.7387,-25.40682 11.6889,-68.7381 -0.1071,-93.26297 -9.3599,-19.46013 -27.913,-29.75931 -50.4332,-27.99652 -32.7455,2.56318 -50.1282,28.6486 -50.0929,75.17192 0.021,27.96375 5.8055,46.91042 18.3871,60.22754 12.107,12.81479 28.3444,17.13078 49.4107,13.13368 z M 497.20377,874.37194 C 493.79737,867.97695 432.892,632.77187 432.64568,625.06076 L 432.5,620.5 h 39.5 39.5 l 2.21338,9 c 1.21736,4.95 6.27735,25.875 11.24442,46.5 17.23854,71.5804 26.30596,108.51331 27.25167,111 l 0.95078,2.5 1.28789,-2.5 c 0.70835,-1.375 7.47162,-27.7 15.02951,-58.5 21.5646,-87.8804 26.27014,-106.58104 27.00319,-107.31535 0.37591,-0.37656 15.87746,-0.81394 34.4479,-0.97197 26.60615,-0.2264 33.9836,-0.0144 34.7982,1 0.56857,0.70803 4.52746,15.91232 8.79752,33.78732 8.59929,35.99765 13.52089,56.54352 24.52164,102.36896 4.63568,19.31071 7.91556,31.06283 8.75966,31.38674 3.32864,1.27732 2.48956,4.34671 35.47132,-129.7557 l 9.22292,-37.5 39.25,-0.26161 c 21.5875,-0.14388 39.25,-0.0918 39.25,0.11565 0,0.37825 -1.94602,7.65195 -11.00825,41.14596 -7.39935,27.34797 -7.82185,28.86307 -12.68815,45.5 -2.49356,8.525 -7.63411,26.3 -11.42343,39.5 -3.78933,13.2 -7.36559,25.09522 -7.94724,26.43382 -0.58166,1.3386 -1.88301,6.2886 -2.8919,11 -1.00889,4.7114 -4.17752,18.46618 -7.0414,30.56618 -2.86389,12.1 -7.09149,30.1 -9.39468,40 l -4.18761,18 -5.95867,0.75339 c -3.27727,0.41436 -23.49549,0.63936 -44.92937,0.5 L 674.55859,874.5 672.70124,868 c -1.02154,-3.575 -2.72007,-9.425 -3.7745,-13 -1.05444,-3.575 -4.36232,-16.625 -7.35084,-29 -2.98853,-12.375 -8.40787,-34.65 -12.04298,-49.5 -3.63512,-14.85 -7.01731,-28.8 -7.51598,-31 -3.02439,-13.34258 -9.37758,-37.14695 -10.12855,-37.95 -0.56043,-0.59929 -1.25059,-0.5878 -1.86951,0.0311 -0.53961,0.53961 -10.0141,38.09211 -21.05443,83.45 -11.04033,45.35788 -20.38633,82.76222 -20.76889,83.12075 -0.38256,0.35853 -20.78786,0.97591 -45.34511,1.37195 -43.00803,0.69359 -44.68622,0.65124 -45.64668,-1.15188 z M 697.23485,599.50255 c -17.80972,-3.22836 -30.92401,-9.47129 -42.15808,-20.06894 -13.06182,-12.32186 -20.32431,-25.4869 -25.69033,-46.57005 L 626.74873,522.5 626.26291,437.2029 c -0.2672,-46.91341 -0.17484,-88.20091 0.20523,-91.75 L 627.15919,339 H 668.07959 709 l 0.0227,72.75 c 0.023,73.80553 0.69238,93.26519 3.55035,103.21564 5.22417,18.18875 21.60427,27.74656 42.65553,24.88954 20.98242,-2.84767 35.00144,-16.7468 43.22487,-42.85518 2.67389,-8.48926 2.67847,-8.55937 3.62238,-55.5 0.5198,-25.85 1.05289,-59.375 1.18464,-74.5 l 0.23954,-27.5 40.25,-0.26134 40.25,-0.26135 v 91.45233 c 0,50.29878 -0.35088,91.66918 -0.77974,91.93423 -0.42885,0.26505 -7.56953,1.66341 -15.86816,3.10747 -8.29864,1.44407 -21.78526,4.29127 -29.97027,6.32712 L 822.5,535.5 l -0.61872,23 c -0.34029,12.65 -0.67779,25.5875 -0.75,28.75 L 821,593 h -8.5 -8.5 l -0.0741,-10.25 c -0.0939,-12.99165 -0.98289,-18.75947 -3.09607,-20.08859 -1.37697,-0.86607 -3.35134,0.5567 -11.2461,8.10414 -17.76683,16.9852 -32.93376,24.99593 -54.4647,28.76668 -10.15209,1.77795 -27.98921,1.76397 -37.88416,-0.0297 z m -261.04658,-6.7757 c -0.74504,-0.89771 -1.32134,-43.10072 -1.88118,-137.76052 L 433.5,318.5 378.59208,318.24139 c -38.86421,-0.18305 -55.30411,-0.58743 -56.26386,-1.38396 -1.09942,-0.91243 -1.30603,-7.10681 -1.09209,-32.74138 L 321.5,252.5 l 156,-0.27376 c 85.8,-0.15056 157.0125,-0.0295 158.25,0.26906 l 2.25,0.5428 V 285.51905 318 h -55.87756 c -45.65165,0 -56.08231,0.24672 -56.99641,1.34815 -0.81033,0.97638 -1.18879,38.96218 -1.37245,137.75 L 523.5,593.5 l -43.11882,0.26052 c -34.31084,0.20731 -43.33823,-0.004 -44.19291,-1.03367 z"
       style="fill:#0199eb" />
    <path
       inkscape:connector-curvature="0"
       id="path1556"
       d="m 1184.702,1266.9849 c -65.8685,-5.9285 -107.7809,-40.3121 -121.2686,-99.4849 -2.5262,-11.0829 -3.1154,-48.8959 -0.9897,-63.5111 3.7398,-25.7117 14.9795,-49.7995 31.3195,-67.1208 17.2498,-18.2857 40.2051,-30.443 69.0861,-36.5887 11.7646,-2.50347 14.4018,-2.69508 37.6507,-2.73571 27.5446,-0.0481 34.875,0.87776 51.9153,6.55741 18.1248,6.0411 32.0564,14.4667 45.7539,27.6712 17.3236,16.6999 29.0419,38.5207 34.4918,64.2277 1.4518,6.8481 1.8056,13.2614 1.8205,33 l 0.018,24.5 -73,0.7202 c -40.15,0.3961 -82.675,0.8461 -94.5,1 l -21.5,0.2798 -0.3203,3.3431 c -0.4904,5.1189 4.3879,18.8737 9.3595,26.3894 10.1645,15.3661 27.3233,23.9809 51.169,25.69 32.0383,2.2964 66.681,-5.4444 103.5421,-23.1358 7.0126,-3.3658 13.037,-5.8327 13.3876,-5.4821 0.8952,0.8952 1.7869,55.6173 0.9767,59.9364 -0.6189,3.2988 -1.1341,3.7191 -7.3899,6.0284 -20.4829,7.5612 -47.2146,14.2007 -69.3456,17.2237 -13.7182,1.8739 -48.6262,2.7114 -62.1771,1.4918 z m 66.3135,-165.5036 c 1.6746,-2.0178 0.7984,-10.2204 -1.9165,-17.9422 -4.526,-12.8725 -14.2349,-22.9839 -26.3454,-27.4374 -13.1362,-4.8307 -35.163,-3.7512 -48.0724,2.3559 -7.5706,3.5815 -18.5949,14.0199 -22.4138,21.2226 -4.5549,8.591 -7.8085,19.9629 -6.2491,21.8419 1.8752,2.2594 103.1209,2.22 104.9972,-0.041 z M 435,1265.3528 c -22.0198,-2.9579 -56.84886,-11.1787 -76.52337,-18.0621 L 350.5,1244.5 l -0.2623,-36.0839 c -0.32912,-45.2762 -1.74803,-42.3869 16.52046,-33.6402 39.53326,18.928 72.3923,27.3103 107.24184,27.3573 22.79915,0.031 35.49446,-3.029 46.63412,-11.2391 6.93323,-5.1099 9.61224,-10.757 10.17317,-21.4441 0.60708,-11.5664 -1.48352,-18.17 -7.90037,-24.9549 -3.08941,-3.2666 -7.12184,-6.2114 -10.68455,-7.8027 -8.012,-3.5787 -25.89979,-8.8364 -44.72237,-13.1451 -39.41706,-9.023 -54.8518,-13.7214 -70,-21.3081 -12.59712,-6.3091 -19.88876,-11.441 -28,-19.7064 -8.25798,-8.4151 -12.60099,-15.3988 -17.21469,-27.6818 -4.975,-13.2449 -5.53099,-17.8193 -5.02521,-41.3449 0.48091,-22.36856 1.04532,-25.59162 7.05397,-40.28218 5.69507,-13.92387 19.98308,-31.02175 33.5823,-40.18658 9.61856,-6.48217 23.55805,-12.60534 36.24865,-15.92288 19.96092,-5.21812 24.03774,-5.61768 56.85498,-5.57213 25.98535,0.0361 32.83681,0.37194 46.287,2.26912 21.17485,2.98678 39.50098,6.44107 55.213,10.40709 l 13,3.28146 0.2629,34.70227 0.26291,34.70226 -3.27465,0.61433 c -2.24831,0.42179 -4.83804,-0.0589 -8.2629,-1.53363 C 549.7017,981.00602 500.21857,972.47428 469.06736,976.08466 441.37956,979.29365 429,989.66495 429,1009.6522 c 0,9.1936 2.12267,14.419 8.02253,19.7492 8.7105,7.8694 18.76758,11.1757 59.47747,19.5531 43.0048,8.8498 56.83584,13.0101 75.7233,22.7772 18.18813,9.4055 29.18673,20.1132 36.73985,35.7683 6.34655,13.1543 8.2287,22.2947 8.77838,42.631 1.16527,43.1118 -10.54549,71.4645 -38.24153,92.5856 -13.33586,10.17 -41.02724,20.4716 -62.5,23.2509 -11.56117,1.4964 -69.51822,1.0619 -82,-0.6147 z m 262.8751,-5.0175 -4.6249,-0.4347 -0.72204,-9.2003 c -1.0247,-13.0568 0.5107,-243.8011 1.63665,-245.9619 0.85638,-1.6434 3.54741,-1.744 40.12657,-1.5 L 773.5,1003.5 l 0.2538,127.1244 c 0.20153,100.9392 -0.004,127.3361 -1,128.1523 -1.28526,1.0538 -65.93251,2.3994 -74.8787,1.5586 z M 916.5,1258.0141 c -25.07416,-5.7262 -40.23561,-17.7898 -47.87889,-38.0961 -5.64261,-14.991 -5.71845,-16.0488 -6.32659,-88.2329 -0.56157,-66.6559 -0.56794,-66.818 -2.67871,-68.1352 -1.40541,-0.877 -7.82371,-1.545 -19.11581,-1.9897 -9.35,-0.3681 -17.34476,-1.0121 -17.76614,-1.4309 -0.42138,-0.4189 -0.64638,-13.3318 -0.5,-28.6954 L 822.5,1003.5 842,1003 l 19.5,-0.5 0.75904,-14.4257 c 0.41747,-7.93414 0.97092,-14.63759 1.22989,-14.89656 0.25896,-0.25897 7.1174,0.33481 15.24096,1.31951 8.12356,0.9847 25.79511,2.06315 39.27011,2.39655 l 24.5,0.6062 0.5,12.5 0.5,12.5 42,0.5 42,0.5 0.2661,27.9339 c 0.1464,15.3636 -0.079,28.2773 -0.5,28.6972 -0.4213,0.4198 -17.6411,1.0319 -38.2661,1.3601 -20.625,0.3282 -39.44692,0.8347 -41.8265,1.1255 l -4.32649,0.5288 0.37894,58.6772 c 0.34065,52.7484 0.55439,59.1306 2.11534,63.1631 5.14129,13.2821 14.3461,15.963 54.92381,15.9969 l 20.7651,0.017 -0.2651,29.25 -0.2651,29.25 -48,0.1705 c -43.28311,0.1538 -48.78615,-0.01 -56,-1.6564 z m -214,-289.92 -9,-0.5941 -0.3141,-19.5 c -0.17275,-10.725 -0.0149,-25.0125 0.3507,-31.75 L 694.20139,904 H 733.60069 773 v 32 32 h -27.875 c -15.33125,0 -29.16875,0.15485 -30.75,0.3441 -1.58125,0.18926 -6.925,0.0768 -11.875,-0.25 z m 244.26166,-12.80136 c 1.24391,-0.23919 3.04391,-0.23011 4,0.0202 0.95609,0.25029 -0.0617,0.446 -2.26166,0.4349 -2.2,-0.0111 -2.98225,-0.21589 -1.73834,-0.45508 z M 911.65685,953.8785 C 881.98349,951.02226 827,939.34599 827,935.9008 c 0,-0.56036 0.45127,-0.73993 1.00283,-0.39905 1.82635,1.12875 18.30601,5.66124 31.07452,8.54659 23.23076,5.24955 46.36006,8.36385 70.88786,9.54484 5.75586,0.27715 10.66836,0.70705 10.91666,0.95536 0.72455,0.72454 -19.57084,0.25923 -29.22502,-0.67004 z m 53.21473,0.15203 c 4.05438,-0.37189 9.00438,-0.35765 11,0.0317 2.3002,0.44872 -0.39824,0.69624 -7.37158,0.67617 -10.5214,-0.0303 -10.67927,-0.0611 -3.62842,-0.70782 z m 15.24946,-0.48491 c 0.7819,-0.78189 7.77261,-0.98531 8.51029,-0.24763 0.3861,0.38611 -1.473,0.70201 -4.13133,0.70201 -2.65833,0 -4.62886,-0.20447 -4.37896,-0.45438 z m 12.64062,-1.25288 c 1.24391,-0.23919 3.04391,-0.23011 4,0.0202 0.95609,0.25029 -0.0617,0.446 -2.26166,0.4349 -2.2,-0.0111 -2.98225,-0.21589 -1.73834,-0.45508 z m 8.50734,-0.98573 c 0.973,-0.25354 2.323,-0.23687 3,0.0371 0.6771,0.27393 -0.119,0.48137 -1.769,0.46099 -1.65,-0.0204 -2.2039,-0.2445 -1.231,-0.49804 z m 6,-1 c 0.973,-0.25354 2.323,-0.23687 3,0.0371 0.6771,0.27393 -0.119,0.48137 -1.769,0.46099 -1.65,-0.0204 -2.2039,-0.2445 -1.231,-0.49804 z m 14.731,-2.8435 c 8.7166,-1.98971 16.2305,-4.21832 34,-10.08441 0.8492,-0.28033 0.7212,-0.004 -0.295,0.63775 -4.5996,2.90304 -37.1191,12.08786 -42.1799,11.9133 -1.1138,-0.0384 2.6999,-1.14841 8.4749,-2.46664 z m 36.0833,-10.84628 C 1059.1014,935.682 1073,929.02709 1073,929.47486 1073,930.03337 1059.445,937 1058.3583,937 c -0.3804,0 -0.5041,-0.17225 -0.275,-0.38277 z M 826.43674,906 c 0,-14.575 0.1398,-20.5375 0.31066,-13.25 0.17086,7.2875 0.17086,19.2125 0,26.5 -0.17086,7.2875 -0.31066,1.325 -0.31066,-13.25 z M 1086.5,920 c 0.9955,-1.1 2.035,-2 2.31,-2 0.275,0 -0.3145,0.9 -1.31,2 -0.9955,1.1 -2.035,2 -2.31,2 -0.275,0 0.3145,-0.9 1.31,-2 z m 10,-9 c 3.8205,-3.85 7.1714,-7 7.4464,-7 0.275,0 -2.6259,3.15 -6.4464,7 -3.8205,3.85 -7.1714,7 -7.4464,7 -0.275,0 2.6259,-3.15 6.4464,-7 z m 8.5,-9.37756 c 0,-0.20765 0.7875,-0.99515 1.75,-1.75 1.5861,-1.24387 1.6214,-1.2085 0.3776,0.37756 -1.3064,1.66575 -2.1276,2.19548 -2.1276,1.37244 z m 154.3341,-13.02975 c -21.3669,-4.09584 -34.9497,-11.38372 -52.0142,-27.90828 -13.7808,-13.34482 -13.7435,-13.36069 -14.0956,6.00945 l -0.2757,15.16864 -5.2243,0.62286 c -2.8734,0.34257 -13.0993,0.48601 -22.7243,0.31875 l -17.5,-0.30411 0.2034,-4 c 0.9553,-18.79205 1.1414,-75.31226 0.2688,-81.69296 -3.0945,-22.63016 -10.897,-39.09378 -26.2222,-55.33008 -4.8125,-5.09862 -8.75,-9.79367 -8.75,-10.43345 0,-0.63978 2.1763,-3.49879 4.8362,-6.35337 9.5147,-10.21095 15.2312,-20.78271 19.3486,-35.78241 2.2393,-8.15782 2.3023,-9.52535 2.1183,-46.00737 -0.2066,-40.95879 -0.502,-43.72075 -6.2702,-58.63767 -3.387,-8.75904 -8.9574,-17.73794 -15.5608,-25.08253 L 1113,554.20614 V 540.60307 527 h 40 40 v 64.91821 c 0,35.70502 0.2731,65.63002 0.607,66.5 1.1131,2.90063 3.3415,1.64207 10.5742,-5.97214 13.3984,-14.10501 29.7704,-24.20694 46.3188,-28.57987 10.1122,-2.67217 35.9419,-3.71458 47.1682,-1.90358 26.9152,4.34188 50.3589,20.63483 67.5225,46.92696 6.4979,9.9537 9.9985,17.48 14.7747,31.76513 6.2824,18.79003 7.2998,27.74133 6.7766,59.62175 -0.4131,25.1699 -0.6411,27.9779 -3.022,37.22354 -5.1524,20.0084 -10.8342,32.94015 -21.0198,47.8409 -14.6608,21.44776 -34.4485,35.79134 -57.6683,41.80227 -10.0324,2.59711 -35.4973,3.40485 -45.6978,1.44952 z m 2.3854,-59.73147 c 13.284,-2.52051 26.4523,-13.45828 32.8354,-27.27365 11.7387,-25.40682 11.6889,-68.7381 -0.1071,-93.26297 -9.3599,-19.46013 -27.913,-29.75931 -50.4332,-27.99652 -32.7455,2.56318 -50.1282,28.6486 -50.0929,75.17192 0.021,27.96375 5.8055,46.91042 18.3871,60.22754 12.107,12.81479 28.3444,17.13078 49.4107,13.13368 z M 497.20377,874.37194 C 493.79737,867.97695 432.892,632.77187 432.64568,625.06076 L 432.5,620.5 h 39.5 39.5 l 2.21338,9 c 1.21736,4.95 6.27735,25.875 11.24442,46.5 17.23854,71.5804 26.30596,108.51331 27.25167,111 l 0.95078,2.5 1.28789,-2.5 c 0.70835,-1.375 7.47162,-27.7 15.02951,-58.5 21.5646,-87.8804 26.27014,-106.58104 27.00319,-107.31535 0.37591,-0.37656 15.87746,-0.81394 34.4479,-0.97197 26.60267,-0.22637 33.98558,-0.0143 34.80704,1 0.57343,0.70803 3.828,12.98732 7.23236,27.28732 3.40437,14.3 8.8637,37.25 12.13185,51 3.26815,13.75 6.20583,25.84385 6.52818,26.87523 0.34293,1.09721 0.17972,1.62407 -0.39339,1.26987 -1.9694,-1.21715 -9.79541,19.21665 -12.85282,33.55883 -2.40564,11.28481 -2.3862,31.39514 0.0414,42.79607 5.09357,23.92157 16.40339,45.50905 32.51152,62.05593 4.25338,4.36924 8.43776,7.94407 9.29862,7.94407 0.87936,0 -2.24322,-3.84853 -7.1262,-8.78292 -30.10128,-30.41825 -41.66569,-72.82604 -30.67922,-112.50359 2.85788,-10.32121 8.48333,-23.8863 9.61548,-23.18659 0.47081,0.29098 0.001,1.97896 -1.04311,3.75107 -2.66185,4.51608 -7.50197,19.80012 -9.09562,28.72203 -0.73682,4.125 -1.33967,13.35 -1.33967,20.5 0,32.75172 10.86861,59.03408 34.00258,82.22468 l 9.20216,9.22467 16.36506,0.30761 c 9.00079,0.16918 -2.07174,0.29307 -24.60562,0.27532 L 674.55862,874.5 672.70126,868 c -1.02156,-3.575 -2.72009,-9.425 -3.77452,-13 -1.05444,-3.575 -4.36232,-16.625 -7.35084,-29 -2.98853,-12.375 -8.40787,-34.65 -12.04298,-49.5 -3.63512,-14.85 -7.01731,-28.8 -7.51598,-31 -3.02439,-13.34258 -9.37758,-37.14695 -10.12855,-37.95 -0.56043,-0.59929 -1.25059,-0.5878 -1.86951,0.0311 -0.53961,0.53961 -10.0141,38.09211 -21.05443,83.45 -11.04033,45.35788 -20.38633,82.76222 -20.76889,83.12075 -0.38256,0.35853 -20.78786,0.97591 -45.34511,1.37195 -43.00803,0.69359 -44.68622,0.65124 -45.64668,-1.15188 z M 1011.9582,865.75 c 4.144,-4.41519 5.0418,-5.20909 5.0418,-4.45821 0,0.16049 -2.1375,2.29799 -4.75,4.75 L 1007.5,870.5 Z m 13.1207,-26.33333 c 0.048,-1.16495 0.285,-1.4019 0.6042,-0.60417 0.2889,0.72187 0.2534,1.58438 -0.079,1.91667 -0.3323,0.33229 -0.5687,-0.25834 -0.5253,-1.3125 z M 1024.7442,821 c -2.1229,-16.69719 -17.2485,-32.61317 -38.00588,-39.9918 -2.88108,-1.02414 -4.64007,-1.89495 -3.90888,-1.93513 1.80567,-0.0992 13.14076,4.49216 18.53976,7.50974 6.5991,3.6883 13.5467,10.21963 17.69,16.63001 3.918,6.062 7.3829,16.74744 6.7578,20.84086 -0.2251,1.47439 -0.6514,0.26115 -1.0728,-3.05368 z M 707.70885,792.37552 c -1.32963,-1.32963 -0.71201,-2.89987 1.52941,-3.88839 2.36624,-1.04357 3.92043,-6.95365 33.92013,-128.98713 l 9.34161,-38 39.25,-0.26161 c 21.5875,-0.14388 39.25,-0.0918 39.25,0.11565 0,0.3566 -2.70389,10.47217 -8.85993,33.14596 -1.52321,5.61027 -3.20492,9.90438 -3.83101,9.78218 -18.3081,-3.57343 -38.69104,-2.19351 -57.30906,3.87981 -9.08932,2.965 -20,7.91784 -20,9.07889 0,0.5352 0.5625,0.73073 1.25,0.4345 13.41896,-5.78196 17.57532,-7.34923 24.75,-9.33269 13.5405,-3.7433 27.797,-4.95883 40.64457,-3.46542 5.95335,0.69203 11.01878,1.45274 11.25651,1.69048 1.28507,1.28507 -1.60383,1.38636 -10.02071,0.35134 -19.56566,-2.40597 -42.25531,1.2255 -60.98436,9.76053 l -7.60399,3.46522 -3.07149,11.67758 c -1.68932,6.42267 -6.28754,24.72758 -10.21827,40.67758 -15.67999,63.62585 -14.66938,59.97727 -16.70025,60.29218 -1.03637,0.1607 -2.20329,-0.0268 -2.59316,-0.41666 z M 978.8125,778.31689 c 0.72187,-0.28887 1.58438,-0.25335 1.91667,0.0789 0.33229,0.33229 -0.25834,0.56864 -1.3125,0.52522 -1.16495,-0.048 -1.4019,-0.28494 -0.60417,-0.60416 z m -4,-1 c 0.72187,-0.28887 1.58438,-0.25335 1.91667,0.0789 0.33229,0.33229 -0.25834,0.56864 -1.3125,0.52522 -1.16495,-0.048 -1.4019,-0.28494 -0.60417,-0.60416 z m -6.0625,-0.97917 c 0.6875,-0.27741 1.8125,-0.27741 2.5,0 0.6875,0.27741 0.125,0.50439 -1.25,0.50439 -1.375,0 -1.9375,-0.22698 -1.25,-0.50439 z M 943.5,775 c -8.25,-0.31988 -13.2,-0.69306 -11,-0.82929 2.2,-0.13623 6.7,-0.46735 10,-0.73581 3.3,-0.26847 10.05,0.15527 15,0.94163 9.54742,1.51672 9.31027,1.52728 -14,0.62347 z m 102.1442,-42.48475 c -0.6351,-1.6552 2.7381,-3.94133 4.6612,-3.15905 0.657,0.26725 0.3546,0.52143 -0.672,0.56485 -1.3605,0.0575 -1.7248,0.62128 -1.3437,2.07895 0.6132,2.34467 -1.7657,2.80799 -2.6455,0.51525 z M 1090.5,708 c 0.9955,-1.1 2.035,-2 2.31,-2 0.275,0 -0.3145,0.9 -1.31,2 -0.9955,1.1 -2.035,2 -2.31,2 -0.275,0 0.3145,-0.9 1.31,-2 z m 7,-7 c 0.9955,-1.1 2.035,-2 2.31,-2 0.275,0 -0.3145,0.9 -1.31,2 -0.9955,1.1 -2.035,2 -2.31,2 -0.275,0 0.3145,-0.9 1.31,-2 z M 1005,690.5 c 1.8658,-1.925 3.6173,-3.5 3.8923,-3.5 0.275,0 -1.0265,1.575 -2.8923,3.5 -1.8658,1.925 -3.6173,3.5 -3.8923,3.5 -0.275,0 1.0265,-1.575 2.8923,-3.5 z m 11,-31 c 0,-5.95833 0.2893,-10.54407 0.6428,-10.19053 0.785,0.78497 0.7128,19.6683 -0.078,20.45931 C 1016.2541,670.07928 1016,665.45833 1016,659.5 Z m -4.0435,-20.59288 c -2.4145,-5.15511 -7.9896,-11.69108 -13.4565,-15.77595 -2.35626,-1.76058 -2.47084,-1.9828 -0.534,-1.03559 4.0978,2.00402 12.4849,11.09737 14.948,16.20661 1.2732,2.64121 2.1147,5.0024 1.87,5.2471 -0.2446,0.24469 -1.517,-1.84429 -2.8275,-4.64217 z M 843.14473,595.08333 c -0.0796,-17.82916 0.0832,-32.18878 0.36168,-31.91025 1.01131,1.01131 1.53396,42.61169 0.66999,53.32692 -0.74515,9.24144 -0.91008,5.81757 -1.03167,-21.41667 z M 991,619 c -1.925,-1.05389 -3.14015,-1.93503 -2.70034,-1.95808 1.0597,-0.0556 6.70034,2.87723 6.70034,3.48376 0,0.65451 -0.0585,0.63219 -4,-1.52568 z m -32.73097,-8.69299 c 0.97297,-0.25354 2.32297,-0.23687 3,0.0371 0.67703,0.27393 -0.11903,0.48137 -1.76903,0.46099 -1.65,-0.0204 -2.20394,-0.2445 -1.23097,-0.49804 z M 697.23485,599.50255 c -17.80972,-3.22836 -30.92401,-9.47129 -42.15808,-20.06894 -13.06182,-12.32186 -20.32431,-25.4869 -25.69033,-46.57005 L 626.74873,522.5 626.26291,437.2029 c -0.2672,-46.91341 -0.17484,-88.20091 0.20523,-91.75 L 627.15919,339 H 668.07959 709 l 0.0227,72.75 c 0.023,73.80553 0.69238,93.26519 3.55035,103.21564 5.22417,18.18875 21.60427,27.74656 42.65553,24.88954 20.98242,-2.84767 35.00144,-16.7468 43.22487,-42.85518 2.67389,-8.48926 2.67847,-8.55937 3.62238,-55.5 0.5198,-25.85 1.05289,-59.375 1.18464,-74.5 l 0.23954,-27.5 40.25,-0.26134 40.25,-0.26135 v 91.45233 c 0,50.29878 -0.35088,91.66918 -0.77974,91.93423 -0.42885,0.26505 -7.56953,1.66341 -15.86816,3.10747 -8.29864,1.44407 -21.78526,4.29127 -29.97027,6.32712 L 822.5,535.5 l -0.61872,23 c -0.34029,12.65 -0.67779,25.5875 -0.75,28.75 L 821,593 h -8.5 -8.5 l -0.0741,-10.25 c -0.0939,-12.99165 -0.98289,-18.75947 -3.09607,-20.08859 -1.37697,-0.86607 -3.35134,0.5567 -11.2461,8.10414 -17.76683,16.9852 -32.93376,24.99593 -54.4647,28.76668 -10.15209,1.77795 -27.98921,1.76397 -37.88416,-0.0297 z m -261.04658,-6.7757 c -0.74504,-0.89771 -1.32134,-43.10072 -1.88118,-137.76052 L 433.5,318.5 378.59208,318.24139 c -38.86421,-0.18305 -55.30411,-0.58743 -56.26386,-1.38396 -1.09942,-0.91243 -1.30603,-7.10681 -1.09209,-32.74138 L 321.5,252.5 l 156,-0.27376 c 85.8,-0.15056 157.0125,-0.0295 158.25,0.26906 l 2.25,0.5428 V 285.51905 318 h -55.87756 c -45.65165,0 -56.08231,0.24672 -56.99641,1.34815 -0.81033,0.97638 -1.18879,38.96218 -1.37245,137.75 L 523.5,593.5 l -43.11882,0.26052 c -34.31084,0.20731 -43.33823,-0.004 -44.19291,-1.03367 z M 1096.405,581.75 l -1.905,-2.25 2.25,1.90499 c 2.1144,1.79022 2.7052,2.59501 1.905,2.59501 -0.1898,0 -1.2023,-1.0125 -2.25,-2.25 z m -7.5326,-7.5 c -1.2438,-1.58606 -1.2085,-1.62143 0.3776,-0.37756 0.9625,0.75485 1.75,1.54235 1.75,1.75 0,0.82304 -0.8212,0.29331 -2.1276,-1.37244 z M 949.8125,541.31689 c 0.72187,-0.28887 1.58438,-0.25335 1.91667,0.0789 0.33229,0.33229 -0.25834,0.56864 -1.3125,0.52522 -1.16495,-0.048 -1.4019,-0.28494 -0.60417,-0.60416 z"
       style="fill:#178bd1" />
    <path
       inkscape:connector-curvature="0"
       id="path1554"
       d="m 1184.702,1266.9849 c -65.973,-5.9379 -109.0228,-41.4276 -121.2839,-99.9849 -2.4947,-11.9142 -3.0634,-47.6799 -0.9836,-61.8577 6.0443,-41.2027 29.3563,-74.502 64.4635,-92.0804 22.1812,-11.1063 39.293,-15.01224 69.102,-15.77315 16.0378,-0.40938 22.952,-0.16327 31.7647,1.13068 29.346,4.30877 52.3581,15.52067 71.8197,34.99177 13.3703,13.3769 21.4563,26.453 28.1909,45.5888 5.7201,16.2531 6.6287,23.0549 6.679,50 l 0.046,24.5 -94,0.8441 c -59.4676,0.5341 -94.4436,1.209 -95.2076,1.8372 -1.4146,1.1635 -0.9437,4.6291 1.8778,13.8187 5.9508,19.382 20.9026,33.1517 41.8298,38.5226 13.8002,3.5418 39.3298,3.5391 58.816,-0.01 19.6863,-3.5818 39.9574,-10.4218 61.4343,-20.7296 7.0126,-3.3658 12.9627,-5.9071 13.2224,-5.6474 0.35,0.3501 0.7822,48.6185 0.555,61.9948 -0.073,4.2782 -46.5581,17.317 -76.1486,21.359 -13.7182,1.8739 -48.6262,2.7114 -62.1771,1.4918 z M 1251.3631,1095.5 c -0.3322,-16.9833 -12.2535,-33.2933 -28.8631,-39.4886 -12.755,-4.7576 -34.9962,-3.6198 -47.8188,2.4462 -7.5706,3.5815 -18.5949,14.0199 -22.4138,21.2226 -4.5676,8.6149 -7.809,19.9623 -6.2417,21.8507 1.0681,1.2871 8.2347,1.452 53.3541,1.228 L 1251.5,1102.5 Z M 435,1265.3528 c -22.0198,-2.9579 -56.84886,-11.1787 -76.52337,-18.0621 L 350.5,1244.5 l -0.2623,-36.0839 c -0.32912,-45.2762 -1.74803,-42.3869 16.52046,-33.6402 34.00179,16.2796 64.88613,25.1437 94.24184,27.0481 38.53187,2.4997 63.35524,-5.8117 68.43378,-22.913 2.00819,-6.7623 2.0012,-17.0833 -0.0162,-23.8765 -2.09731,-7.0624 -9.41311,-14.8662 -17.19524,-18.3421 -8.012,-3.5787 -25.89979,-8.8364 -44.72237,-13.1451 -39.41706,-9.023 -54.8518,-13.7214 -70,-21.3081 -12.59712,-6.3091 -19.88876,-11.441 -28,-19.7064 -8.25798,-8.4151 -12.60099,-15.3988 -17.21469,-27.6818 -4.975,-13.2449 -5.53099,-17.8193 -5.02521,-41.3449 0.48091,-22.36856 1.04532,-25.59162 7.05397,-40.28218 8.50375,-20.7908 28.66645,-40.0706 52.52187,-50.22199 12.72045,-5.41304 33.04239,-10.07463 50.16406,-11.507 9.93608,-0.83124 52.32313,1.0366 67.76543,2.98616 16.46276,2.0784 38.63777,6.22852 38.99423,7.29789 1.10401,3.31203 14.85011,24.59035 22.29136,34.50599 l 9.00218,11.99561 -0.2766,14.00235 c -0.32853,16.63128 -0.74183,17.32738 -8.49746,14.31186 C 547.96111,981.69607 513.8025,974.68871 483,975.40793 c -24.78785,0.57877 -37.85535,4.25077 -46.39456,13.03697 -5.42085,5.57764 -7.78191,12.0704 -7.78191,21.3997 0,8.3399 1.92912,13.2846 7.3387,18.8103 7.925,8.0952 20.09973,12.1908 61.83777,20.802 15.125,3.1206 31.35667,6.7535 36.07039,8.0731 60.23061,16.8625 83.94565,44.2247 83.92371,96.8305 -0.0167,40.0285 -11.75803,67.6457 -37.06428,87.18 -14.68056,11.3321 -41.27932,21.4953 -63.92982,24.427 -11.56117,1.4964 -69.51822,1.0619 -82,-0.6147 z m 262.84275,-5.0188 -4.65724,-0.436 -0.72886,-10.6934 c -0.87799,-12.8812 0.26297,-203.3023 1.30743,-218.2046 l 0.73592,-10.5 0.5,11.4746 0.5,11.4745 10.53633,4.2073 c 15.46895,6.1769 32.36901,11.0738 50.5526,14.6478 l 16.08892,3.1624 0.66108,56.9314 c 1.0629,91.5368 0.87443,135.1822 -0.58893,136.3819 -1.28305,1.0519 -65.94192,2.3933 -74.90725,1.5541 z M 916.5,1258.0141 c -25.07718,-5.7269 -40.23544,-17.7893 -47.88128,-38.1025 -5.25734,-13.9674 -5.44158,-16.5866 -6.20701,-88.2375 -0.70951,-66.4166 -0.72674,-66.834 -2.8128,-68.1323 -1.35946,-0.8461 -7.62695,-1.5277 -17.79022,-1.9346 -24.39619,-0.9768 -23.89266,-2.4697 0.85798,-2.5438 15.60901,-0.047 21.27157,0.2513 21.56622,1.1353 0.50014,1.5004 17.20779,-2.6877 33.64462,-8.4337 27.32393,-9.5519 51.1856,-22.2134 75.26042,-39.9345 L 983.77586,1004 H 1005.3879 1027 v 28.5 28.5 l -10.75,0.1 c -38.67899,0.3593 -72.26149,1.5095 -73.26021,2.5093 -0.80568,0.8065 -0.8646,17.0373 -0.21597,59.5 0.84873,55.5621 0.99063,58.6089 2.92906,62.8909 5.66247,12.5084 14.55132,14.9493 54.56222,14.9827 l 20.7651,0.017 -0.2651,29.25 -0.2651,29.25 -48,0.1705 c -43.28311,0.1538 -48.78615,-0.01 -56,-1.6564 z M 862.28601,996.5 c 0.008,-2.75 0.20172,-3.75631 0.43157,-2.23625 0.22986,1.52006 0.22371,3.77006 -0.0136,5 -0.23736,1.22995 -0.42542,-0.0137 -0.41792,-2.76375 z m -168.89145,-45 c 0.002,-7.7 0.15853,-10.71781 0.34883,-6.70625 0.1903,4.01156 0.18902,10.31156 -0.003,14 C 693.5487,962.48219 693.393,959.2 693.39456,951.5 Z m 235.41794,2.81689 c 0.72187,-0.28887 1.58438,-0.25335 1.91667,0.0789 0.33229,0.33229 -0.25834,0.56864 -1.3125,0.52522 -1.16495,-0.048 -1.4019,-0.28494 -0.60417,-0.60416 z M 1261.5,888.9458 c -12.8278,-1.96738 -27.6976,-7.65637 -38.1956,-14.61312 -3.1809,-2.10797 -10.38,-8.25718 -15.9977,-13.66491 -6.7054,-6.45464 -10.8313,-9.71405 -12.0105,-9.48821 -1.6058,0.30756 -1.8492,1.93275 -2.2962,15.33223 l -0.5,14.98821 -22,0.56437 c -12.1,0.31041 -22.2792,0.31041 -22.6205,0 -0.3412,-0.3104 -0.2667,-3.26437 0.1657,-6.56437 0.4323,-3.3 0.824,-21.80355 0.8704,-41.11901 0.092,-38.26591 -0.604,-45.7831 -5.513,-59.54309 -4.8775,-13.67174 -8.1677,-18.69106 -25.7264,-39.24745 l -3.8239,-4.47662 5.4516,-6.42619 c 10.3945,-12.25296 16.2131,-24.44239 19.2559,-40.33947 1.5925,-8.31988 1.8742,-61.75617 0.4077,-77.34817 -1.5415,-16.38897 -9.0521,-33.84639 -19.9883,-46.45988 l -6.0343,-6.95989 0.2775,-13.04011 0.2776,-13.04012 39.7429,-0.26147 39.7428,-0.26147 0.2572,66.26147 c 0.3014,77.68676 -0.872,72.07126 12.2571,58.65771 9.7551,-9.96644 15.7397,-14.81396 23.9744,-19.41905 13.8377,-7.73848 30.1355,-11.4838 49.8861,-11.46405 29.1331,0.0291 50.5733,8.77239 70.2844,28.66173 13.6634,13.78708 23.3446,30.11542 30.4425,51.34471 6.0747,18.16878 7.1394,27.71225 6.6358,59.48042 -0.4642,29.28066 -1.3848,35.34299 -8.2764,54.5 -13.1655,36.59704 -40.6924,63.77315 -72.9149,71.98557 -8.398,2.14039 -35.1049,3.32934 -44.0319,1.96023 z m 0.901,-60.03531 c 7.09,-1.3803 15.9163,-6.44513 22.2241,-12.75302 6.5981,-6.59802 13.3718,-19.89672 15.8702,-31.15747 3.7261,-16.79413 3.6953,-43.29381 -0.07,-60.16635 C 1294.1218,696.58581 1274.8425,680 1248.3109,680 c -25.5859,0 -44.2324,15.89283 -51.2524,43.68375 -2.9379,11.63041 -4.1926,29.42276 -3.0546,43.31625 3.8726,47.28009 28.5962,69.65902 68.3971,61.91049 z m -765.21206,45.43375 c -3.3943,-6.37273 -64.29777,-241.59837 -64.54326,-249.28348 L 432.5,620.5 l 38.75462,0.0879 c 21.31504,0.0484 39.02148,0.35482 39.34766,0.681 0.32618,0.32617 2.36202,8.1616 4.52409,17.41205 2.16208,9.25045 6.45125,27.619 9.5315,40.819 l 5.60046,24 -2.13012,8.14457 c -6.44244,24.63281 -9.2642,46.21453 -9.2642,70.85543 0,27.31927 3.82175,53.15075 11.71755,79.19972 1.88014,6.20277 3.41844,11.48431 3.41844,11.73676 0,0.25245 2.3625,0.62428 5.25,0.82628 2.8875,0.202 -4.2,0.45666 -15.75,0.56591 -11.55,0.10925 -21.97397,0.4599 -23.16438,0.77923 -1.49088,0.39992 -2.47005,0.007 -3.14668,-1.26366 z M 672.66094,868 c -0.97788,-3.575 -2.64948,-9.425 -3.71466,-13 -1.06518,-3.575 -4.38186,-16.625 -7.37038,-29 -2.98853,-12.375 -8.40787,-34.65 -12.04298,-49.5 -3.63512,-14.85 -7.01634,-28.8 -7.51384,-31 -2.79579,-12.36332 -9.12436,-36.24717 -9.99913,-37.73643 C 630.5501,705.26121 630.76572,702 632.40101,702 c 0.9925,0 2.75103,5.61312 6.03085,19.25 2.5464,10.5875 5.05124,20.825 5.56631,22.75 5.15355,19.26082 31.02887,127.60016 30.77475,128.85312 -0.18371,0.90578 -1.1341,-1.27812 -2.11198,-4.85312 z M 552.45698,792.93039 c -0.36358,-0.58828 0.29928,-2.95078 1.47303,-5.25 1.17374,-2.29921 7.04157,-24.20539 13.03962,-48.68039 32.66927,-133.3067 28.70394,-118 30.56891,-118 0.8038,0 1.46146,0.28013 1.46146,0.62251 0,0.34238 -6.23515,25.87988 -13.85589,56.75 C 577.52337,709.24263 568.47522,746.2 565.0371,760.5 c -3.43811,14.3 -6.67031,27.6875 -7.18265,29.75 -0.66892,2.69279 -1.46788,3.75 -2.83398,3.75 -1.04634,0 -2.19991,-0.48132 -2.56349,-1.06961 z M 709.5,789 c 0.33992,-0.55 0.81648,-1 1.05902,-1 0.24254,0 0.44098,0.45 0.44098,1 0,0.55 -0.47656,1 -1.05902,1 -0.58246,0 -0.7809,-0.45 -0.44098,-1 z M 436.2483,592.79918 c -0.82442,-0.99337 -1.3545,-38.63105 -1.94121,-137.83285 L 433.5,318.5 378.59208,318.24139 c -38.86421,-0.18305 -55.30411,-0.58743 -56.26386,-1.38396 -1.09942,-0.91243 -1.30603,-7.10681 -1.09209,-32.74138 L 321.5,252.5 l 155,-0.28325 c 85.25,-0.15579 156.4625,-0.0229 158.25,0.29531 l 3.25,0.57857 v 32.44643 32.44643 L 581.25,318.24174 524.5,318.5 524,455.16671 c -0.275,75.16668 -0.87463,137.04168 -1.3325,137.5 -0.45788,0.45831 -19.83434,0.98307 -43.0588,1.16614 -34.78453,0.27419 -42.42616,0.092 -43.3604,-1.03367 z M 643.13538,565.60174 C 637.11384,556.89127 633.0222,547.1485 629.38644,532.86356 L 626.74873,522.5 626.26291,437.2029 c -0.2672,-46.91341 -0.17484,-88.20091 0.20523,-91.75 L 627.15919,339 h 40.97304 40.97304 l -0.47718,83.11715 -0.47718,83.11715 -11.95962,5.26154 c -11.73887,5.16442 -27.30827,13.46382 -38.19129,20.3582 -4.27386,2.70748 -18.62027,12.84763 -20.89437,14.76829 -1.07429,0.90732 8.62308,22.26455 11.63637,25.62767 0.86239,0.9625 1.10443,1.75 0.53789,1.75 -0.56655,0 -3.33158,-3.32922 -6.14451,-7.39826 z M 801.7606,563.1967 c -1.52648,-2.60591 -1.55853,-3.11951 -0.26184,-4.19568 1.82143,-1.51164 2.82165,0.42254 2.32581,4.49755 L 803.5,566.16609 Z m -15.7337,-39.81184 c -0.0148,-0.61333 0.7902,-2.18833 1.78887,-3.5 3.31331,-4.35174 7.92541,-14.27377 10.63767,-22.88486 2.67389,-8.48926 2.67847,-8.55937 3.62238,-55.5 0.5198,-25.85 1.05289,-59.375 1.18464,-74.5 l 0.23954,-27.5 40.25,-0.26134 40.25,-0.26135 -9.5e-4,21.26135 c -5.2e-4,11.69374 -0.29958,47.27903 -0.66458,79.07844 l -0.66364,57.8171 -2.58541,-0.6625 c -9.95985,-2.55218 -25.1978,-5.69065 -34.08542,-7.02037 -10.84293,-1.62226 -39.52606,-3.57043 -41.4873,-2.81783 -0.61018,0.23415 -1.86186,3.63186 -2.7815,7.55047 -1.91731,8.16965 -8.31214,21.68063 -12.6922,26.81603 -1.64186,1.925 -2.9973,2.99819 -3.0121,2.38486 z"
       style="fill:#0e79c4" />
    <path
       inkscape:connector-curvature="0"
       id="path1552"
       d="m 1184.702,1266.9849 c -59.0491,-5.3147 -100.0755,-34.4258 -116.0833,-82.3692 -4.7958,-14.3634 -6.6878,-25.9131 -7.3086,-44.6157 -0.9575,-28.842 2.9383,-51.0217 12.5354,-71.3675 6.1769,-13.0951 11.5159,-20.9393 21.0285,-30.896 10.6868,-11.1857 21.6934,-19.1447 35.9184,-25.9728 13.9199,-6.6816 24.3818,-9.6372 45.3131,-12.8013 12.1624,-1.83855 17.1082,-2.09306 31.8945,-1.64127 19.3646,0.59168 30.7817,2.54138 45.699,7.80397 18.3439,6.4715 30.0838,13.7207 43.9807,27.1571 14.2194,13.7484 23.8307,29.1299 30.2595,48.4257 5.5782,16.743 6.4824,23.5747 6.5233,49.2921 l 0.037,23.5 -93,0.7771 c -51.15,0.4274 -94.0605,1.0106 -95.3567,1.2959 -2.1983,0.4838 -2.3096,0.8347 -1.6559,5.2228 2.153,14.4534 10.4473,29.1896 20.7263,36.8236 11.7571,8.7317 21.4124,12.0225 39.2863,13.3898 33.8531,2.5897 70.9665,-5.6628 107.133,-23.8222 5.5731,-2.7983 10.4106,-4.8101 10.75,-4.4707 0.3393,0.3394 0.617,14.6649 0.617,31.8345 v 31.2175 l -6.75,2.4917 c -20.5078,7.5705 -47.229,14.2086 -69.3709,17.2331 -13.7182,1.8739 -48.6262,2.7114 -62.1771,1.4918 z m 67.1049,-169.8683 c 0.6667,-11.6947 -6.1449,-25.3705 -16.9868,-34.1049 -8.1091,-6.5329 -15.8561,-9.098 -29.3201,-9.7083 -19.6507,-0.8907 -31.3289,3.0566 -43.9703,14.8623 -8.1461,7.6075 -13.2958,16.336 -15.6466,26.5204 -2.0979,9.0887 -6.8321,8.3654 52.8389,8.0728 L 1251.5,1102.5 Z M 435,1265.3983 c -22.54047,-3.1255 -57.02273,-11.285 -76.52337,-18.1076 L 350.5,1244.5 l -0.26281,-35.9137 c -0.32735,-44.7339 -1.40414,-42.1904 14.49146,-34.2307 41.53856,20.8003 84.36579,30.4818 122.15175,27.6136 18.89779,-1.4344 33.2845,-7.1584 39.01607,-15.5231 5.06804,-7.3963 6.59847,-21.0491 3.52114,-31.4116 -2.09731,-7.0624 -9.41311,-14.8662 -17.19524,-18.3421 -8.012,-3.5787 -25.89979,-8.8364 -44.72237,-13.1451 -39.41706,-9.023 -54.8518,-13.7214 -70,-21.3081 -12.59712,-6.3091 -19.88876,-11.441 -28,-19.7064 -8.25798,-8.4151 -12.60099,-15.3988 -17.21469,-27.6818 -4.975,-13.2449 -5.53099,-17.8193 -5.02521,-41.3449 0.48091,-22.36856 1.04532,-25.59162 7.05397,-40.28218 6.06246,-14.82209 19.01291,-29.73813 34.91495,-40.21427 19.98756,-13.16764 43.5712,-19.60419 75.77098,-20.67973 l 16.5,-0.55114 6.39713,15.15791 c 8.2527,19.55468 22.80853,46.0075 25.58704,46.50022 1.10871,0.19661 7.8127,1.35202 14.89775,2.56757 17.48306,2.99948 35.04558,8.28434 60.36808,18.16577 3.26164,1.27277 4.48541,3.82975 1.83291,3.82975 -0.77941,0 -3.59191,-0.93662 -6.25,-2.08137 -10.43043,-4.49203 -31.46286,-11.16714 -43.83291,-13.91134 -14.04009,-3.1147 -41.75011,-7.4257 -45,-7.0009 -1.1,0.14378 -3.575,0.1706 -5.5,0.0596 -8.6766,-0.50034 -14.56497,-0.21019 -27.9518,1.37734 -6.55472,0.77731 -16.22367,4.23765 -21.37489,7.64968 -14.77854,9.7889 -16.72632,35.27019 -3.54391,46.36239 8.75698,7.3685 19.51987,10.8454 60.54875,19.5598 42.3305,8.9908 52.48043,12.0724 71.50947,21.7112 15.26359,7.7314 24.04195,14.7832 32.51897,26.123 6.32877,8.4661 8.82792,13.8463 12.61157,27.1506 1.92307,6.762 2.12805,9.9107 2.0832,32 -0.0483,23.7795 -0.13034,24.7647 -2.79032,33.5 -3.6135,11.8666 -6.66763,19.3153 -10.75643,26.2337 -4.27185,7.2281 -17.52735,21.2075 -25.52935,26.9236 -11.78028,8.4151 -30.0707,15.9036 -51.32526,21.0138 -9.44974,2.272 -76.02296,2.804 -91,0.7272 z m 262.8926,-5.0623 -4.60741,-0.4339 -0.64259,-7.6019 C 691.10497,1234.1101 692.42833,1091 694.13415,1091 c 0.44602,0 0.93579,6.3772 1.08839,14.1715 l 0.27746,14.1714 7.5,2.3441 c 19.50611,6.0967 46.269,11.9208 63.75,13.8733 l 6.25,0.698 0.002,32.6209 c 0.001,17.9414 0.27591,44.9958 0.61075,60.1208 0.49576,22.3932 0.35612,27.8114 -0.75194,29.1768 -1.212,1.4935 -5.13199,1.7268 -35.86075,2.1349 -18.975,0.2521 -36.57333,0.263 -39.1074,0.024 z M 916.5,1258.0093 c -30.08173,-6.8516 -45.98289,-22.8275 -51.8282,-52.0717 -1.14724,-5.7397 -1.48377,-15.4278 -1.47413,-42.4376 0.007,-19.25 0.2215,-33.9875 0.47696,-32.75 0.58207,2.8197 1.06725,2.8091 15.20496,-0.331 19.7236,-4.3808 38.56607,-10.0555 54.89644,-16.533 4.00182,-1.5873 7.43796,-2.886 7.63587,-2.886 0.19792,0 0.56256,15.4125 0.81032,34.25 0.42289,32.1531 0.58311,34.5907 2.61701,39.8157 3.17559,8.1578 8.70911,12.6878 17.66077,14.458 2.2,0.435 16.15,1.0577 31,1.3836 l 27,0.5927 0.2808,27 c 0.1544,14.85 0.033,28.0125 -0.2691,29.25 l -0.5498,2.25 -47.73095,-0.084 c -42.38845,-0.075 -48.62639,-0.2883 -55.73095,-1.9064 z M 862.15789,1076 c 0,-1.375 0.22698,-1.9375 0.50439,-1.25 0.27741,0.6875 0.27741,1.8125 0,2.5 -0.27741,0.6875 -0.50439,0.125 -0.50439,-1.25 z m -2.01867,-12.0333 c -2.01224,-1.6763 -3.88594,-1.9667 -12.69099,-1.9667 -5.80811,0 -10.60074,-0.4378 -10.94823,-1 -0.40042,-0.6479 4.15628,-1 12.94098,-1 H 863 v 3 c 0,3.5187 0.1441,3.47 -2.86078,0.9667 z m 83.21016,-2.2104 c -0.33309,-0.539 0.0145,-1.3727 0.7725,-1.8528 0.75797,-0.4801 19.60312,-0.8022 41.87812,-0.7157 43.4724,0.1686 42.1346,1.1689 -3,2.2431 -14.025,0.3338 -28.54763,0.764 -32.27251,0.9561 -3.74951,0.1933 -7.04283,-0.088 -7.37811,-0.6307 z M 1252.5,886.61153 c -18.1945,-4.88116 -28.7472,-11.07519 -44.1826,-25.93345 -8.6419,-8.3187 -10.6331,-9.77265 -13.0105,-9.5 L 1192.5,851.5 l -0.2768,15.38353 -0.2767,15.38352 -13.7233,-0.72378 c -7.5477,-0.39808 -13.8774,-0.87486 -14.0658,-1.05951 -0.1885,-0.18465 0.8437,-5.16466 2.2938,-11.0667 6.6689,-27.14402 9.0488,-48.16245 9.0488,-79.91706 0,-15.60752 -0.5288,-30.19696 -1.323,-36.5 -4.6724,-37.08204 -12.8932,-67.94 -26.6678,-100.10123 l -6.2537,-14.60122 -0.7393,-17.89878 c -0.494,-11.95866 -1.3628,-20.38781 -2.6179,-25.39877 -2.6354,-10.5219 -9.9249,-24.74324 -17.4784,-34.09919 L 1114,552.94891 v -12.35105 -12.35105 l 38.4091,-0.73861 c 21.125,-0.40624 38.9348,-0.41367 39.5774,-0.0165 0.8738,0.54003 1.1147,15.63459 0.9555,59.86521 -0.2815,78.22102 -0.4612,72.64311 2.3403,72.64311 1.5422,0 5.7004,-3.3235 12.8242,-10.25 22.0909,-21.47905 44.5507,-29.85175 76.2887,-28.43936 14.5499,0.64749 22.8421,2.49248 35.1838,7.82828 34.6236,14.96925 61.4735,55.46052 66.3578,100.07167 1.3606,12.42708 1.3658,38.60121 0.01,51.93346 -4.4959,44.2201 -30.677,84.38651 -65.488,100.47021 -12.4366,5.74604 -16.9734,6.56201 -38.9591,7.00698 -18.7052,0.37858 -20.5827,0.24847 -29,-2.00971 z m 6,-56.63571 c 20.309,-2.85651 36.4807,-19.52076 41.9877,-43.26672 3.9332,-16.95927 3.8901,-46.93482 -0.091,-63.45547 -5.2159,-21.64437 -18.7808,-37.04585 -36.8967,-41.89228 -6.7672,-1.81039 -22.7062,-1.71913 -29.965,0.17156 -23.5917,6.14484 -37.6654,28.03115 -40.4902,62.96709 -2.4673,30.51481 4.18,56.2204 18.4501,71.34745 12.0868,12.8126 26.2,17.05464 47.0051,14.12837 z M 497.17103,874.31077 C 494.4241,869.15302 433.9135,637.02858 432.37577,625.75 L 431.72815,621 h 28.15032 28.15032 l -2.97277,5.88902 c -9.29981,18.42282 -20.43877,48.10758 -25.70669,68.50703 l -2.56683,9.93976 2.5989,10.0821 c 1.4294,5.54515 5.49928,21.33209 9.04419,35.08209 3.54491,13.75 12.16093,46.825 19.1467,73.5 6.98577,26.675 12.75232,49.12657 12.81456,49.89237 0.1746,2.14855 -2.13438,2.44896 -3.21582,0.4184 z m 174.90792,-7.8941 c 0.048,-1.16495 0.28494,-1.4019 0.60416,-0.60417 0.28887,0.72187 0.25335,1.58438 -0.0789,1.91667 -0.33229,0.33229 -0.56864,-0.25834 -0.52522,-1.3125 z m -1,-4 c 0.048,-1.16495 0.28494,-1.4019 0.60416,-0.60417 0.28887,0.72187 0.25335,1.58438 -0.0789,1.91667 -0.33229,0.33229 -0.56864,-0.25834 -0.52522,-1.3125 z m -1,-4 c 0.048,-1.16495 0.28494,-1.4019 0.60416,-0.60417 0.28887,0.72187 0.25335,1.58438 -0.0789,1.91667 -0.33229,0.33229 -0.56864,-0.25834 -0.52522,-1.3125 z m -2.0039,-6.38422 c -0.69811,-2.45716 -3.6686,-14.38216 -6.60107,-26.5 C 658.54151,813.4146 653.16189,791.35 649.51928,776.5 c -3.64261,-14.85 -6.8883,-28.575 -7.21264,-30.5 -0.94974,-5.63673 0.72574,-2.72866 2.10788,3.65858 0.69522,3.21278 3.81775,15.96642 6.93894,28.34142 15.02422,59.56843 18.7584,75.15494 18.39005,76.76035 -0.2391,1.04209 -0.90811,-0.0517 -1.66846,-2.7279 z M 553,791.60725 c 0,-0.84667 0.67979,-3.01716 1.51065,-4.82332 1.37024,-2.9787 5.77152,-20.50941 31.42907,-125.18499 10.44331,-42.60575 10.00614,-41.05308 11.2177,-39.84152 0.68244,0.68244 0.31622,3.49083 -1.12496,8.62688 -1.17523,4.18828 -2.74762,10.4277 -3.4942,13.86538 -0.74658,3.43768 -8.74607,36.40032 -17.77664,73.25032 -9.03058,36.85 -16.83377,68.79522 -17.34043,70.98938 C 556.50469,792.45846 553,794.93 553,791.60725 Z M 640.25114,738.5 c -0.63894,-2.2 -2.58032,-9.85 -4.31416,-17 -1.73385,-7.15 -3.55397,-13.4275 -4.04472,-13.95 -1.35304,-1.4406 -1.07549,-4.77758 0.35774,-4.30113 1.47157,0.4892 9.84915,33.09831 9.4417,36.75113 -0.23581,2.1141 -0.45817,1.88256 -1.44056,-1.5 z M 435.61231,592.18172 c -0.27815,-0.45006 -0.82679,-62.32506 -1.21919,-137.5 L 433.67965,318 h -53.77472 c -32.72044,0 -54.78455,-0.38393 -56.3539,-0.9806 l -2.57918,-0.9806 0.26408,-31.53815 0.26407,-31.53815 157.45915,0.0279 c 86.60253,0.0154 157.82156,0.39031 158.26451,0.83326 0.44294,0.44294 0.68633,14.95133 0.54085,32.24085 L 637.5,317.5 581,318 l -56.5,0.5 -0.60796,68 c -0.33438,37.4 -0.67188,92.65476 -0.75,122.78836 L 523,564.07672 l -5.85385,8.71164 c -3.21962,4.7914 -7.31257,11.29914 -9.09546,14.46164 l -3.24161,5.75 h -34.34552 c -18.89004,0 -34.5731,-0.36823 -34.85125,-0.81828 z M 801.4,562.6 c -0.36606,-0.95394 -0.17057,-2.22943 0.43443,-2.83443 0.8,-0.8 1.28152,-0.62698 1.76557,0.63443 0.36606,0.95394 0.17057,2.22943 -0.43443,2.83443 -0.8,0.8 -1.28152,0.62698 -1.76557,-0.63443 z m -163.88573,-6.16142 c -3.74824,-7.92312 -5.26462,-12.41939 -8.07336,-23.93858 -2.52372,-10.35023 -3.16687,-18.5 -1.45996,-18.5 0.9767,0 1.93989,3.14405 1.83811,6 -0.24488,6.87109 3.55576,22.73753 7.85779,32.80384 4.04093,9.45535 3.91568,12.25548 -0.16258,3.63474 z M 791,514.52417 c 0,-0.26171 0.89832,-1.94921 1.99626,-3.75 2.34896,-3.85264 2.67713,-2.97705 0.47806,1.27549 C 792.10244,514.70258 791,515.80511 791,514.52417 Z M 626.67262,500.95806 c -0.84372,-7.02813 -0.87735,-151.18523 -0.0367,-157.31849 L 627.27185,339 h 40.30506 c 22.16778,0 40.44411,0.3375 40.61407,0.75 0.16996,0.4125 0.17917,21.05575 0.0205,45.8739 l -0.28857,45.12389 -11.21143,3.74659 c -16.08467,5.37509 -39.12247,15.4395 -54.45931,23.79134 l -13.2479,7.21428 -0.0724,18.5 c -0.076,19.40478 -1.06987,26.8652 -2.25923,16.95806 z M 801.01531,480.75 c 0.008,-1.2375 0.45153,-2.925 0.98469,-3.75 0.72105,-1.11575 0.9733,-0.53938 0.98469,2.25 0.008,2.0625 -0.43469,3.75 -0.98469,3.75 -0.55,0 -0.99311,-1.0125 -0.98469,-2.25 z m 1.37994,-14.16239 c -0.39179,-1.02099 -0.34243,-16.30837 0.1097,-33.97197 0.45212,-17.6636 0.80143,-34.36564 0.77624,-37.11564 -0.0252,-2.75 0.17935,-16.5875 0.45453,-30.75 L 804.23606,339 H 843.61803 883 v 42.5 c 0,23.375 -0.3375,42.49864 -0.75,42.49697 -0.4125,-0.002 -5.25,-0.86633 -10.75,-1.92148 -16.18818,-3.10564 -33.91857,-5.12307 -50.75,-5.77451 l -15.75,-0.60959 -0.0153,24.9043 c -0.0143,23.29115 -0.75869,30.7628 -2.58944,25.99192 z"
       style="fill:#0669b7" />
    <path
       inkscape:connector-curvature="0"
       id="path1550"
       d="m 1184.702,1266.9849 c -27.4562,-2.4712 -51.1507,-10.0219 -70.2257,-22.3788 -9.3944,-6.0857 -30.0768,-25.8255 -28.957,-27.6373 0.3293,-0.5328 0.2068,-0.9688 -0.2722,-0.9688 -1.0136,0 -5.0694,-5.2659 -5.4725,-7.1054 -0.151,-0.689 -0.9203,-2.0526 -1.7096,-3.0302 -0.7892,-0.9775 -1.5321,-2.3594 -1.6508,-3.0709 -0.1187,-0.7114 -1.837,-5.0494 -3.8183,-9.6398 -7.3769,-17.091 -10.6157,-35.772 -10.5159,-60.6537 0.1022,-25.4483 -0.5502,-23.6217 12.42,-34.773 25.1789,-21.6477 52.271,-52.2544 71.1307,-80.3582 l 9.483,-14.1312 11.6932,-2.3688 c 10.4312,-2.11316 14.2831,-2.36345 35.6931,-2.31923 20.9,0.0432 25.3191,0.33524 34.2123,2.26123 26.2506,5.6851 45.7056,16.4381 63.8659,35.2992 13.0696,13.574 20.7779,26.5644 26.9581,45.4311 4.867,14.8575 6.4637,27.6269 6.4637,51.6927 v 20.4772 l -93.75,0.7344 c -51.5625,0.4039 -94.2,0.8065 -94.75,0.8945 -2.8368,0.4542 -2.6915,3.6865 0.6592,14.6601 3.779,12.3764 10.0382,21.709 19.2175,28.6535 10.983,8.3091 22.0171,12.0007 39.8044,13.3169 32.9051,2.4351 71.3754,-6.2259 107.0689,-24.1048 l 9.75,-4.8838 v 28.3841 c 0,15.6112 0.2677,29.7224 0.5948,31.3581 0.5799,2.8995 0.4234,3.0373 -6.25,5.5009 -20.6012,7.6054 -47.283,14.2381 -69.4657,17.2682 -13.7182,1.8739 -48.6262,2.7114 -62.1771,1.4918 z m 66.7162,-163.5919 c 3.5417,-1.3591 1.2702,-16.1435 -4.1139,-26.7758 -2.7122,-5.3561 -11.0691,-14.8806 -12.3576,-14.0843 -0.4454,0.2753 -1.5243,-0.5195 -2.3975,-1.7662 -0.8733,-1.2467 -1.8062,-2.1491 -2.0732,-2.0053 -0.2671,0.1438 -1.9459,-0.3477 -3.7308,-1.0921 -8.9613,-3.7378 -11.5221,-4.1693 -24.7452,-4.1693 -20.6027,0 -28.7374,3.2229 -43.281,17.1474 -6.9079,6.614 -10.6943,13.362 -13.2854,23.6773 -1.3467,5.3615 -1.432,6.9723 -0.4329,8.1761 1.0763,1.297 8.2316,1.4992 53.04,1.4992 28.4876,0 52.5075,-0.2731 53.3775,-0.607 z M 435,1265.3528 c -22.0198,-2.9579 -56.84886,-11.1787 -76.52337,-18.0621 L 350.5,1244.5 l -0.26243,-36.2082 c -0.31628,-43.6381 -1.42085,-40.8982 13.48729,-33.4544 12.61964,6.3011 32.10733,14.1566 44.77514,18.0487 23.86228,7.3317 42.06319,10.2043 65,10.2587 17.58997,0.042 27.19456,-1.4296 38.26835,-5.8628 6.95222,-2.7831 16.05225,-10.3671 16.68746,-13.9073 0.20973,-1.169 0.86547,-3.869 1.45719,-6 1.56251,-5.6274 1.32807,-16.1999 -0.49539,-22.3402 -2.09731,-7.0624 -9.41311,-14.8662 -17.19524,-18.3421 -8.012,-3.5787 -25.89979,-8.8364 -44.72237,-13.1451 -39.41706,-9.023 -54.8518,-13.7214 -70,-21.3081 -12.59712,-6.3091 -19.88876,-11.441 -28,-19.7064 -8.25798,-8.4151 -12.60099,-15.3988 -17.21469,-27.6818 -4.975,-13.2449 -5.53099,-17.8193 -5.02521,-41.3449 0.48091,-22.36856 1.04532,-25.59162 7.05397,-40.28218 7.36443,-18.00528 24.37983,-35.05329 45.18593,-45.27251 8.48307,-4.16659 18.20172,-7.90059 20.66729,-7.94059 0.36701,-0.006 1.44957,2.12668 2.40568,4.73918 5.05524,13.81299 12.37836,31.08857 17.67742,41.70184 l 5.96739,11.95185 -3.85889,3.02052 c -5.90953,4.62565 -9.85956,9.00376 -11.78584,13.06308 -4.03764,8.50871 -3.83149,23.12241 0.42328,30.00681 6.268,10.1418 17.35392,15.321 46.96483,21.9413 l 15.46115,3.4567 4.93593,5.804 c 10.04824,11.8152 40.55874,41.2054 53.64176,51.6721 15.0048,12.0041 39.1007,28.3321 54.75,37.1 l 10.25,5.7428 -0.004,9.1445 c -0.007,16.2232 -4.72348,38.2392 -10.74064,50.1374 -6.39284,12.641 -20.62308,28.3182 -32.69862,36.0235 -6.35196,4.0531 -20.56329,11.0157 -21.80672,10.6838 -0.4125,-0.1101 -0.75,0.2979 -0.75,0.9068 0,0.6088 -0.675,0.848 -1.5,0.5314 -0.825,-0.3166 -1.5,-0.092 -1.5,0.5 0,0.5916 -0.64593,0.8277 -1.43539,0.5248 -0.78947,-0.303 -1.57697,-0.1593 -1.75,0.3193 -0.43824,1.212 -18.75912,5.8129 -27.81461,6.985 -11.56117,1.4964 -69.51822,1.0619 -82,-0.6147 z m 262.76568,-5.022 c -4.02628,-0.3734 -4.75255,-0.7675 -4.85626,-2.635 -0.0671,-1.2077 -0.22477,-29.6458 -0.35044,-63.1958 -0.2152,-57.4523 0.19505,-62.5133 2.0134,-24.838 l 0.58699,12.1619 7.67031,2.0541 c 19.6535,5.2632 40.24216,9.1951 59.16737,11.2995 l 11.00295,1.2234 -0.0153,30.5496 c -0.008,16.8022 -0.34592,31.0656 -0.75,31.6965 -0.75268,1.175 -64.43119,2.6149 -74.46901,1.6838 z M 916.5,1258.0093 c -20.35601,-4.6364 -33.29001,-12.881 -42.4563,-27.063 -3.89627,-6.0283 -9.02979,-19.9936 -9.5376,-25.9463 -0.16422,-1.925 -0.61975,-4.291 -1.01229,-5.2577 -0.41108,-1.0124 -0.0892,-2.7085 0.75917,-4 1.23305,-1.8772 3.32148,-2.5435 12.82558,-4.0922 13.51763,-2.2026 41.36994,-9.1303 55.67144,-13.847 l 10.25,-3.3805 v 4.2058 c 0,8.3877 5.46966,16.5819 13.23328,19.825 5.597,2.338 19.88145,3.5099 43.01672,3.5293 l 20.75,0.017 v 29 29 l -47.75,-0.084 c -42.40689,-0.075 -48.64518,-0.2882 -55.75,-1.9064 z m -56.94746,-194.5945 c -1.33807,-0.9785 -5.19137,-1.4656 -12.49367,-1.5795 l -10.55887,-0.1648 12,-0.6834 c 12.02847,-0.6851 15.3817,-0.03 13.7075,2.6777 -0.53402,0.8637 -1.22026,0.799 -2.65496,-0.25 z m 84.64562,-1.5132 c 0.58783,-1.7683 22.29889,-2.3277 40.80184,-1.0512 11.96861,0.8257 11.45848,0.869 -12,1.0196 -13.475,0.087 -25.57275,0.4444 -26.88388,0.7953 -1.7785,0.476 -2.26556,0.282 -1.91796,-0.7637 z M 584,995.85115 c -17.28386,-7.71082 -46.12184,-15.39761 -69.29247,-18.46997 -8.73293,-1.15796 -12.46733,-2.02138 -11.76789,-2.72082 1.22958,-1.22958 17.87736,0.52563 30.90415,3.25828 20.68762,4.33967 55.70278,15.92064 57.64685,19.06621 0.98833,1.59916 -2.57315,1.06013 -7.49064,-1.1337 z M 471.19167,974.925 c 0.19708,-0.59125 0.78583,-1.075 1.30833,-1.075 0.5225,0 1.11125,0.48375 1.30833,1.075 0.19709,0.59125 -0.39166,1.075 -1.30833,1.075 -0.91667,0 -1.50542,-0.48375 -1.30833,-1.075 z m 16.55833,0.38567 c -2.50476,-0.65456 -2.15872,-2.16998 0.65686,-2.87665 3.09451,-0.77667 7.51501,1.36824 5.47824,2.65815 -1.45267,0.92 -3.21111,0.98262 -6.1351,0.2185 z m 775.75,-87.32745 c -8.7075,-0.79594 -17.2377,-3.37207 -27.1188,-8.18988 -9.5251,-4.64427 -9.6524,-4.87768 -7.8321,-14.35802 0.838,-4.36443 2.1909,-12.66032 3.0064,-18.43532 0.8155,-5.775 1.7016,-11.86719 1.9692,-13.53819 l 0.4865,-3.03819 7.2444,0.69628 c 21.5285,2.06919 40.23,-5.99607 50.3257,-21.70362 8.7432,-13.60323 12.6113,-30.29361 12.6113,-54.41628 0,-25.32486 -4.145,-42.12401 -13.7086,-55.55962 -10.6922,-15.0211 -24.5795,-21.16733 -45.484,-20.13037 -6.424,0.31866 -12.8291,1.28506 -16.5,2.4895 -3.3,1.08276 -6.2876,1.80007 -6.6392,1.59402 -0.3516,-0.20605 -0.9251,-1.61638 -1.2745,-3.13408 -0.3494,-1.5177 -2.7188,-9.19996 -5.2653,-17.0717 l -4.6301,-14.31225 4.4045,-4.303 c 11.0268,-10.77249 27.9589,-18.70854 46.0837,-21.59928 10.9742,-1.75028 35.2548,-0.78273 44.3209,1.76614 16.405,4.61214 28.4398,11.45965 40.8359,23.23476 17.5078,16.63071 29.4652,38.13684 36.2409,65.18156 2.3321,9.30823 2.6466,12.85487 3.1402,35.40966 0.3564,16.28574 0.1393,28.54515 -0.6199,35 -5.62,47.7841 -37.4636,90.3691 -76.1701,101.86369 -8.2127,2.43891 -32.0349,3.77835 -45.427,2.55419 z M 497.13851,874.25 c -3.06348,-5.7531 -64.10101,-240.83712 -64.45221,-248.23556 -0.40991,-8.63499 2.01438,-3.19042 6.53487,14.67631 2.61743,10.34509 6.3324,24.88425 8.25548,32.30925 1.92309,7.425 6.91812,26.775 11.10008,43 4.18195,16.225 15.21298,58.47253 24.51341,93.88341 9.30042,35.41088 16.90986,64.77338 16.90986,65.25 0,1.51702 -1.89477,0.93205 -2.86149,-0.88341 z m 174.94044,-7.83333 c 0.048,-1.16495 0.28494,-1.4019 0.60416,-0.60417 0.28887,0.72187 0.25335,1.58438 -0.0789,1.91667 -0.33229,0.33229 -0.56864,-0.25834 -0.52522,-1.3125 z m -1,-4 c 0.048,-1.16495 0.28494,-1.4019 0.60416,-0.60417 0.28887,0.72187 0.25335,1.58438 -0.0789,1.91667 -0.33229,0.33229 -0.56864,-0.25834 -0.52522,-1.3125 z m -1,-4 c 0.048,-1.16495 0.28494,-1.4019 0.60416,-0.60417 0.28887,0.72187 0.25335,1.58438 -0.0789,1.91667 -0.33229,0.33229 -0.56864,-0.25834 -0.52522,-1.3125 z m -2.04035,-6.38422 c -0.67807,-2.45716 -3.63215,-14.38216 -6.56462,-26.5 C 658.54151,813.4146 653.16189,791.35 649.51928,776.5 c -5.99934,-24.45782 -8.40083,-35.7214 -7.03587,-33 1.13322,2.25936 27.51909,110.98515 27.16861,111.95113 -0.20931,0.57688 -0.93535,-0.96153 -1.61342,-3.41868 z m 525.1775,-1.87771 c -1.7424,-1.10561 -0.3842,-4.33286 1.6597,-3.94362 1.9787,0.37682 2.8523,4.79572 0.9438,4.77357 -0.7258,-0.008 -1.8973,-0.3819 -2.6035,-0.82995 z M 554.31552,790 c 0.28793,-1.925 3.71799,-16.1 7.62236,-31.5 3.90436,-15.4 12.9926,-52.075 20.19607,-81.5 7.20347,-29.425 13.48152,-54.175 13.95123,-55 1.58267,-2.77984 1.00662,0.84369 -2.20305,13.85796 -8.15072,33.04872 -12.24545,49.75751 -18.41464,75.14204 -3.67582,15.125 -9.10645,37.22836 -12.06807,49.11857 -2.96162,11.89022 -5.63135,23.59022 -5.93275,26 -0.30139,2.40979 -1.25149,5.05643 -2.11132,5.88143 -1.4084,1.35135 -1.51145,1.15315 -1.03983,-2 z m 85.86492,-51.5 c -0.60006,-2.2 -2.51414,-9.85 -4.25351,-17 -1.73938,-7.15 -3.53376,-13.46509 -3.98752,-14.03354 -0.45375,-0.56844 -0.43891,-1.65825 0.033,-2.4218 0.95154,-1.53962 0.80682,-2.00196 6.51839,20.82586 1.97754,7.90378 3.41219,14.87878 3.1881,15.5 -0.2241,0.62121 -0.8984,-0.67052 -1.49846,-2.87052 z m 552.26566,-75.58713 c -0.945,-1.52909 1.1059,-3.29874 2.9867,-2.57704 0.862,0.33077 1.5672,1.29052 1.5672,2.13279 0,1.74768 -3.5351,2.09255 -4.5539,0.44425 z m -2.7669,-60.52588 C 1182.558,587.18465 1161.9548,554.88951 1148.6025,538 l -7.5105,-9.5 25.1032,-0.26748 c 13.8067,-0.14712 25.2664,-0.10427 25.4659,0.0952 0.1995,0.19948 0.2448,17.819 0.1008,39.15447 -0.2591,38.372 -0.2816,38.74971 -2.0827,34.90478 z m -754.06808,-10.2072 c -0.2788,-0.45111 -0.82754,-62.54739 -1.2194,-137.99174 L 433.67923,317.01651 377.58961,316.75825 321.5,316.5 v -31.76862 -31.76862 l 155.5,0.037 c 85.525,0.0203 156.5125,0.30622 157.75,0.63525 l 2.25,0.59825 V 285.61663 317 h -55.8 c -42.06667,0 -56.09534,0.29534 -57,1.2 -0.9124,0.9124 -1.2,19.51575 -1.2,77.62089 v 76.4209 l -11.42642,11.85166 c -25.8619,26.82437 -50.41124,61.63461 -67.44736,95.63838 -2.81942,5.62751 -5.12622,10.91501 -5.12622,11.75 0,1.592 -2.51607,2.1102 -3.38888,0.69796 z m 365.83503,-29.26692 c -0.36954,-0.59793 -0.17109,-1.58793 0.44098,-2.2 C 802.70429,559.89571 803,560.18458 803,561.8 c 0,2.41451 -0.51946,2.78655 -1.55385,1.11287 z m -163.49199,-4.99852 c -0.61391,-1.1471 -0.92784,-2.274 -0.69762,-2.50422 0.23022,-0.23022 0.93203,0.70832 1.55958,2.08564 1.37807,3.02454 0.70709,3.35038 -0.86196,0.41858 z m -3.33062,-7.45301 c -0.96498,-2.51469 -0.68031,-3.16355 0.49853,-1.13634 0.58369,1.00375 0.8506,2.03566 0.59313,2.29313 -0.25747,0.25747 -0.74872,-0.26309 -1.09166,-1.15679 z m -3.54459,-11.04467 c 0.048,-1.16495 0.28494,-1.4019 0.60416,-0.60417 0.28887,0.72187 0.25335,1.58438 -0.0789,1.91667 -0.33229,0.33229 -0.56864,-0.25834 -0.52522,-1.3125 z m -1,-4 c 0.048,-1.16495 0.28494,-1.4019 0.60416,-0.60417 0.28887,0.72187 0.25335,1.58438 -0.0789,1.91667 -0.33229,0.33229 -0.56864,-0.25834 -0.52522,-1.3125 z m -1.9409,-8.08345 c -1.29329,-6.43979 -1.50819,-13.03781 -0.38805,-11.91429 0.4125,0.41374 0.83123,2.17624 0.93052,3.91666 0.0993,1.74043 0.45275,5.52691 0.78548,8.41441 0.79656,6.91272 0.10013,6.69415 -1.32795,-0.41678 z M 791,514.05902 c 0,-0.51754 0.44485,-1.21592 0.98855,-1.55194 0.56686,-0.35034 0.7345,0.0511 0.39301,0.94098 C 791.71677,515.18048 791,515.49745 791,514.05902 Z M 626.13781,423.5 c -0.0637,-41.8 0.16313,-77.6875 0.50404,-79.75 L 627.26168,340 H 667.63084 708 v 14.35158 14.35158 l -6.75,1.793 c -18.7791,4.98827 -50.63953,16.73034 -65.38118,24.09603 l -6.63118,3.31328 -0.72682,44.79727 c -1.16396,71.74135 -2.2478,62.97077 -2.37301,-19.20274 z m 175.05714,57 c 0.0204,-1.65 0.2445,-2.20394 0.49804,-1.23097 0.25354,0.97297 0.23687,2.32297 -0.0371,3 -0.27393,0.67703 -0.48137,-0.11903 -0.46099,-1.76903 z m 0.96989,-36.69098 c 0.13493,-19.07869 0.2951,-21.49413 0.88255,-13.30902 1.11098,15.47982 1.08489,35.30021 -0.0474,36 -0.6575,0.40636 -0.94354,-7.36524 -0.83516,-22.69098 z m 68.90273,-82.42089 C 858.37794,359.08706 838.20285,357.04804 821.25,356.35326 L 805,355.68729 v -4.71865 c 0,-2.59525 -0.28125,-6.12489 -0.625,-7.84364 L 803.75,340 H 843.375 883 v 11.5 c 0,13.25006 1.18629,12.26701 -11.93243,9.88813 z"
       style="fill:#005bad" />
    <path
       inkscape:connector-curvature="0"
       id="path1548"
       d="m 1184.702,1266.9849 c -27.4562,-2.4712 -51.1507,-10.0219 -70.2257,-22.3788 -8.7958,-5.6979 -30.3755,-26.0402 -29.0405,-27.3752 0.3356,-0.3356 1.2561,0.3119 2.0455,1.439 2.489,3.5535 14.3301,14.557 21.34,19.8304 3.7074,2.7891 10.7768,7.1426 15.7097,9.6744 23.8296,12.2308 47.0967,16.9323 83.2563,16.8235 38.2933,-0.1151 69.9933,-5.683 106.9627,-18.7872 5.6627,-2.0071 8.25,-2.5351 8.25,-1.6835 0,1.4734 -8.5413,4.7297 -27,10.2934 -15.5763,4.695 -32.8708,8.4525 -49.1209,10.6722 -13.7182,1.8739 -48.6262,2.7114 -62.1771,1.4918 z M 435,1265.3983 c -22.54047,-3.1255 -57.02273,-11.285 -76.52337,-18.1076 L 350.5,1244.5 v -36.25 c 0,-23.3333 0.35632,-36.3391 1,-36.5 0.64876,-0.1622 1.09228,12.1132 1.26274,34.9489 l 0.26273,35.199 13.73727,4.4812 c 22.69795,7.4044 47.20179,13.033 70.23726,16.1339 14.56817,1.9611 65.06232,3.7934 69.93512,2.5377 1.96068,-0.5052 8.06488,-1.4317 13.56488,-2.0589 5.5,-0.6273 13.06922,-1.8253 16.82048,-2.6623 8.94424,-1.9957 9.69222,-1.093 0.96556,1.1654 -18.67083,4.8318 -17.50279,4.7261 -55.78604,5.0482 -28.33376,0.2383 -39.45934,-0.03 -47.5,-1.1448 z m 262.75,-5.1333 c -2.80799,-0.2215 -4.75015,-0.8632 -4.75037,-1.5698 -2.8e-4,-0.9111 9.20513,-1.1302 38.72349,-0.9217 21.29812,0.1504 39.09077,0.6404 39.53921,1.0888 1.4071,1.4071 -58.86999,2.5572 -73.51233,1.4027 z m 218.75,-2.2557 c -28.73019,-6.5438 -43.96218,-20.8494 -50.96207,-47.8629 -0.9029,-3.4844 -1.48106,-6.817 -1.28481,-7.4058 0.19625,-0.5887 1.35768,2.7163 2.58094,7.3445 3.06779,11.6069 8.52713,21.0244 16.82628,29.0257 7.51031,7.2408 13.17463,10.5266 23.83966,13.829 14.07426,4.358 23.31723,5.0471 68,5.0696 25.3786,0.013 42.5936,0.4049 43.5,0.9906 0.979,0.6327 -15.1713,0.9454 -46.5,0.9004 -42.68464,-0.061 -48.88589,-0.2708 -56,-1.8911 z M 692.4686,1192 c 0,-32.175 0.12636,-45.3375 0.2808,-29.25 0.15445,16.0875 0.15445,42.4125 0,58.5 -0.15444,16.0875 -0.2808,2.925 -0.2808,-29.25 z m 388.8095,19.75 c -1.4991,-1.9384 -2.4422,-3.75 -1.9521,-3.75 0.2442,0 1.1811,1.125 2.082,2.5 1.6859,2.5729 1.592,3.4763 -0.1299,1.25 z m -218.19915,-13.3333 c 0.048,-1.165 0.28494,-1.4019 0.60416,-0.6042 0.28887,0.7219 0.25335,1.5844 -0.0789,1.9167 -0.33229,0.3323 -0.56864,-0.2584 -0.52522,-1.3125 z M 529.46283,1179.414 c 1.75845,-4.193 1.80965,-17.9649 0.0888,-23.8844 -2.19206,-7.5404 -9.27498,-15.2397 -17.32925,-18.8372 -8.012,-3.5787 -25.89979,-8.8364 -44.72237,-13.1451 -39.41706,-9.023 -54.8518,-13.7214 -70,-21.3081 -12.59712,-6.3091 -19.88876,-11.441 -28,-19.7064 -8.25798,-8.4151 -12.60099,-15.3988 -17.21469,-27.6818 -4.975,-13.2449 -5.53099,-17.8193 -5.02521,-41.3449 0.48091,-22.36856 1.04532,-25.59162 7.05397,-40.28218 2.44781,-5.98465 9.20116,-16.86875 13.78946,-22.22392 l 2.142,-2.5 -1.61433,2.5 c -10.37846,16.07236 -14.40948,25.91698 -17.19754,42 -2.37921,13.7246 -1.55508,42.4142 1.52246,53 5.53855,19.0508 17.12035,35.4216 32.52697,45.9766 7.32302,5.017 27.8749,14.7808 37.51691,17.8236 5.225,1.6488 22.775,6.0036 39,9.6771 43.85775,9.9299 57.71605,15.0719 65.46009,24.2883 4.16275,4.9541 6.53991,12.2482 6.53991,20.067 0,6.7938 -2.22301,15.5692 -4.26354,16.8303 -0.71931,0.4445 -0.81007,0.03 -0.27363,-1.2489 z M 1145.2377,1154 c 0.2535,-1.3118 8.2549,-1.5272 63.7761,-1.7166 34.9174,-0.1192 77.4362,0.1471 94.4862,0.5916 l 31,0.8083 -46,0.2917 c -25.3,0.1604 -67.9492,0.5691 -94.7761,0.9083 -43.039,0.5442 -48.742,0.4403 -48.4862,-0.8833 z m 11.7101,-82.5026 c 5.7158,-7.8852 14.5882,-14.0946 25.1953,-17.6329 12.881,-4.2968 32.9331,-3.4507 43.1998,1.8227 4.5655,2.345 2.5119,2.4479 -3.4025,0.1704 -3.8798,-1.494 -8.5958,-2.2324 -16.4404,-2.5739 -19.1507,-0.8337 -31.0194,3.0126 -43.1149,13.9724 -3.7868,3.4312 -6.2336,5.3398 -5.4373,4.2413 z M 860.15455,1063.75 c -0.77024,-0.7731 -5.52059,-1.4654 -12.45,-1.8146 l -11.20455,-0.5647 12.75,-0.1853 c 12.14512,-0.1766 12.75,-0.091 12.75,1.8146 0,2.3432 -0.18369,2.4178 -1.84545,0.75 z m 83.84445,-2 c 5.5e-4,-0.4125 12.0385,-0.6649 26.751,-0.5609 29.4929,0.2085 27.25196,0.634 -5.501,1.0445 -11.68806,0.1465 -21.25056,-0.071 -21.25,-0.4836 z m 288.8734,-0.5 c -1.2438,-1.5861 -1.2085,-1.6214 0.3776,-0.3776 0.9625,0.7549 1.75,1.5424 1.75,1.75 0,0.8231 -0.8212,0.2933 -2.1276,-1.3724 z M 584,995.85115 c -17.03561,-7.60007 -45.97871,-15.35301 -68.5,-18.34899 -14.61562,-1.94429 -16.78999,-2.69586 -5.74389,-1.98538 16.62076,1.06905 38.01883,5.73775 59.81185,13.04995 13.09657,4.39428 22.43204,8.13149 22.43204,8.98006 0,0.99709 -3.74208,0.20394 -8,-1.69564 z M 471.8125,975.31689 c 0.72187,-0.28887 1.58438,-0.25335 1.91667,0.0789 0.33229,0.33229 -0.25834,0.56864 -1.3125,0.52522 -1.16495,-0.048 -1.4019,-0.28494 -0.60417,-0.60416 z M 487.5,975 c -1.48239,-0.63701 -0.70598,-0.87366 3,-0.9144 3.57821,-0.0393 4.57346,0.22067 3.5,0.9144 -1.79667,1.1611 -3.79798,1.1611 -6.5,0 z m 9.63851,-100.75 C 494.29661,868.91302 433.69094,635.99179 432.54432,626 l -0.5164,-4.5 1.51174,4.5 c 0.83145,2.475 15.46998,57.6 32.53006,122.5 17.06008,64.9 31.62424,120.1375 32.36479,122.75 1.32026,4.65757 0.54376,6.45502 -1.296,3 z m 174.94044,-7.83333 c 0.048,-1.16495 0.28494,-1.4019 0.60416,-0.60417 0.28887,0.72187 0.25335,1.58438 -0.0789,1.91667 -0.33229,0.33229 -0.56864,-0.25834 -0.52522,-1.3125 z m -1,-4 c 0.048,-1.16495 0.28494,-1.4019 0.60416,-0.60417 0.28887,0.72187 0.25335,1.58438 -0.0789,1.91667 -0.33229,0.33229 -0.56864,-0.25834 -0.52522,-1.3125 z m -1,-4 c 0.048,-1.16495 0.28494,-1.4019 0.60416,-0.60417 0.28887,0.72187 0.25335,1.58438 -0.0789,1.91667 -0.33229,0.33229 -0.56864,-0.25834 -0.52522,-1.3125 z m -2.04035,-6.38422 c -0.67807,-2.45716 -3.63215,-14.38216 -6.56462,-26.5 C 658.54151,813.4146 653.16189,791.35 649.51928,776.5 c -5.99934,-24.45782 -8.40083,-35.7214 -7.03587,-33 1.13322,2.25936 27.51909,110.98515 27.16861,111.95113 -0.20931,0.57688 -0.93535,-0.96153 -1.61342,-3.41868 z M 1194,849.41667 c 0,-0.87084 0.5344,-1.40521 1.1875,-1.1875 1.8542,0.61807 2.1618,2.77083 0.3958,2.77083 -0.8708,0 -1.5833,-0.7125 -1.5833,-1.58333 z M 554.31685,789.25 c 0.29912,-1.5125 3.73346,-15.35 7.63186,-30.75 3.89841,-15.4 12.98177,-52.075 20.18524,-81.5 7.20347,-29.425 13.48152,-54.175 13.95123,-55 1.5882,-2.78956 1.01741,0.90015 -1.99629,12.90439 -1.60111,6.37758 -5.25867,21.27061 -8.12791,33.09561 -2.86924,11.825 -7.81875,32.075 -10.99891,45 -3.18016,12.925 -8.83711,35.9875 -12.571,51.25 -3.73388,15.2625 -7.20045,27.75 -7.70348,27.75 -0.50302,0 -0.66986,-1.2375 -0.37074,-2.75 z m 85.86359,-50.75 c -0.60006,-2.2 -2.51414,-9.85 -4.25351,-17 -1.73938,-7.15 -3.58135,-13.52244 -4.09328,-14.16097 -0.58481,-0.72946 -0.53841,-1.40347 0.12485,-1.81338 0.5806,-0.35883 1.26252,-0.0614 1.51539,0.66097 1.63342,4.66612 8.53545,34.26818 8.20412,35.18654 C 641.4544,741.99292 640.7805,740.7 640.18044,738.5 Z M 1194,661 c 0,-0.55 0.4766,-1 1.059,-1 0.5825,0 0.7809,0.45 0.441,1 -0.3399,0.55 -0.8165,1 -1.059,1 -0.2426,0 -0.441,-0.45 -0.441,-1 z M 435.66735,592.27077 c -0.30712,-0.49692 -0.88011,-62.23303 -1.27333,-137.19136 -0.70199,-133.8214 -0.68036,-136.2812 1.19552,-135.91996 1.86795,0.35971 1.9161,3.39254 2.16406,136.30063 0.14655,78.55305 -0.1224,136.30872 -0.63713,136.82345 -0.52098,0.52098 -1.12253,0.51568 -1.44912,-0.0128 z m 365.9156,-29.13656 c -0.43077,-0.697 -0.51316,-1.53733 -0.18309,-1.86741 0.89497,-0.89496 1.87077,0.4213 1.38739,1.87145 -0.33872,1.01617 -0.57427,1.01538 -1.2043,-0.004 z m -163.62879,-5.21986 c -0.61391,-1.1471 -0.92784,-2.274 -0.69762,-2.50422 0.23022,-0.23022 0.93203,0.70832 1.55958,2.08564 1.37807,3.02454 0.70709,3.35038 -0.86196,0.41858 z m -3.33062,-7.45301 c -0.96498,-2.51469 -0.68031,-3.16355 0.49853,-1.13634 0.58369,1.00375 0.8506,2.03566 0.59313,2.29313 -0.25747,0.25747 -0.74872,-0.26309 -1.09166,-1.15679 z m -3.54459,-11.04467 c 0.048,-1.16495 0.28494,-1.4019 0.60416,-0.60417 0.28887,0.72187 0.25335,1.58438 -0.0789,1.91667 -0.33229,0.33229 -0.56864,-0.25834 -0.52522,-1.3125 z m -1,-4 c 0.048,-1.16495 0.28494,-1.4019 0.60416,-0.60417 0.28887,0.72187 0.25335,1.58438 -0.0789,1.91667 -0.33229,0.33229 -0.56864,-0.25834 -0.52522,-1.3125 z m -1.89881,-7.87388 c -0.64908,-3.23199 -1.13434,-7.4888 -1.07836,-9.45957 0.0627,-2.20701 0.64536,-0.33829 1.51707,4.86556 1.64002,9.79028 1.30641,13.28362 -0.43871,4.59401 z M 791,514.05902 c 0,-0.51754 0.44485,-1.21592 0.98855,-1.55194 0.56686,-0.35034 0.7345,0.0511 0.39301,0.94098 C 791.71677,515.18048 791,515.49745 791,514.05902 Z M 626.47582,422 c 0,-42.625 0.12322,-60.0625 0.27383,-38.75 0.15061,21.3125 0.15061,56.1875 0,77.5 -0.15061,21.3125 -0.27383,3.875 -0.27383,-38.75 z m 174.71913,58.5 c 0.0204,-1.65 0.2445,-2.20394 0.49804,-1.23097 0.25354,0.97297 0.23687,2.32297 -0.0371,3 -0.27393,0.67703 -0.48137,-0.11903 -0.46099,-1.76903 z m 1.23512,-36.5 c 0,-12.925 0.14251,-18.2125 0.3167,-11.75 0.17418,6.4625 0.17418,17.0375 0,23.5 -0.17419,6.4625 -0.3167,1.175 -0.3167,-11.75 z M 321.47814,315.80362 c -0.27926,-0.72772 -0.38858,-15.2314 -0.24294,-32.2304 0.20259,-23.64576 0.55848,-31.00507 1.5148,-31.32357 1.60544,-0.5347 1.84665,63.26357 0.24294,64.25472 -0.55389,0.34231 -1.23555,0.027 -1.5148,-0.70075 z"
       style="fill:#314f69" />
  </g>
  <text
     xml:space="preserve"
     style="font-style:normal;font-weight:normal;font-size:40px;line-height:1.25;font-family:sans-serif;letter-spacing:0px;word-spacing:0px;fill:#000000;fill-opacity:1;fill-rule:nonzero;stroke:none"
     x="47.331738"
     y="17.090546"
     id="text1611"><tspan
       sodipodi:role="line"
       id="tspan1609"
       x="47.331738"
       y="17.090546"
       style="font-style:normal;font-variant:normal;font-weight:bold;font-stretch:normal;font-size:21.33333397px;font-family:sans-serif;-inkscape-font-specification:'sans-serif Bold';letter-spacing:-0.84px;baseline-shift:sub;fill:#ff1f9f;fill-opacity:1">shops</tspan></text>
</svg>
