<?xml version="1.0" encoding="UTF-8"?> <!-- Generator: Adobe Illustrator 19.0.0, SVG Export Plug-In . SVG Version: 6.00 Build 0) --> <svg xmlns="http://www.w3.org/2000/svg" xmlns:xlink="http://www.w3.org/1999/xlink" id="Layer_1" x="0px" y="0px" viewBox="0 0 512 512" style="enable-background:new 0 0 512 512;" xml:space="preserve"> <g> <g> <path d="M467,90c24.813,0,45-20.187,45-45S491.813,0,467,0c-19.555,0-36.228,12.541-42.42,30H300V15c0-8.284-6.716-15-15-15h-60 c-8.284,0-15,6.716-15,15v15H87.42C81.228,12.541,64.555,0,45,0C20.187,0,0,20.187,0,45s20.187,45,45,45 c19.555,0,36.228-12.641,42.42-30.1h55.302c-21.33,12.299-40.693,28.218-57.179,47.077C49.726,147.95,30,200.519,30,255 c0,8.284,6.716,15,15,15s15-6.716,15-15c0-90.546,63.37-169.24,150-189.773V75c0,8.284,6.716,15,15,15h60c8.284,0,15-6.716,15-15 v-9.792C387.772,85.802,452,164.537,452,255c0,8.284,6.716,15,15,15s15-6.716,15-15c0-82.021-45.683-155.674-114.309-195h56.889 C430.772,77.459,447.445,90,467,90z M467,30c8.271,0,15,6.729,15,15s-6.729,15-15,15s-15-6.729-15-15S458.729,30,467,30z M45,60 c-8.271,0-15-6.729-15-15s6.729-15,15-15s15,6.729,15,15S53.271,60,45,60z M270,60h-30V30h30V60z"></path> </g> </g> <g> <g> <path d="M359.795,276.67l-92.02-149.532c-5.807-9.44-19.665-9.567-25.55,0l-92.02,149.532 c-20.19,32.809-20.874,75.643-1.741,109.125L169.152,422H165c-8.284,0-15,6.716-15,15v60c0,8.284,6.716,15,15,15h180 c8.284,0,15-6.716,15-15v-60c0-8.284-6.716-15-15-15h-4.152l20.688-36.205C380.669,352.313,379.985,309.479,359.795,276.67z M255,300c8.271,0,15,6.729,15,15s-6.729,15-15,15s-15-6.729-15-15S246.729,300,255,300z M330,482H180v-30 c3.957,0,145.977,0,150,0V482z M335.489,370.911L306.295,422h-102.59l-29.194-51.089c-13.557-23.725-13.057-55.279,1.244-78.518 L240,187.996v84.585c-17.459,6.192-30,22.865-30,42.42c0,24.813,20.187,45,45,45s45-20.187,45-45c0-19.555-12.541-36.228-30-42.42 v-84.585l64.245,104.398C348.546,315.633,349.046,347.186,335.489,370.911z"></path> </g> </g> <g> </g> <g> </g> <g> </g> <g> </g> <g> </g> <g> </g> <g> </g> <g> </g> <g> </g> <g> </g> <g> </g> <g> </g> <g> </g> <g> </g> <g> </g> </svg> 