<svg height="512pt" viewBox="-8 0 511 512" width="512pt" xmlns="http://www.w3.org/2000/svg"><path d="m435.703125 409.601562h-375.46875c-18.824219 0-34.140625-15.320312-34.140625-34.144531v-42.65625c0-4.710937 3.820312-8.535156 8.53125-8.535156h426.683594c4.710937 0 8.535156 3.824219 8.535156 8.535156v42.65625c0 18.824219-15.316406 34.144531-34.140625 34.144531zm-392.542969-68.269531v34.125c0 9.421875 7.652344 17.078125 17.074219 17.078125h375.46875c9.417969 0 17.074219-7.65625 17.074219-17.078125v-34.125zm0 0"/><path d="m273.566406 375.464844h-51.199218c-4.710938 0-8.53125-3.820313-8.53125-8.53125 0-4.710938 3.820312-8.535156 8.53125-8.535156h51.199218c4.710938 0 8.535156 3.824218 8.535156 8.535156 0 4.710937-3.824218 8.53125-8.535156 8.53125zm0 0"/><path d="m358.902344 512h-221.867188c-14.113281 0-25.601562-11.484375-25.601562-25.601562 0-14.113282 11.488281-25.597657 25.601562-25.597657h221.867188c14.113281 0 25.597656 11.484375 25.597656 25.597657 0 14.117187-11.484375 25.601562-25.597656 25.601562zm-221.867188-34.132812c-4.703125 0-8.535156 3.832031-8.535156 8.53125 0 4.703124 3.832031 8.535156 8.535156 8.535156h221.867188c4.699218 0 8.53125-3.832032 8.53125-8.535156 0-4.699219-3.832032-8.53125-8.53125-8.53125zm0 0"/><path d="m341.835938 477.867188h-187.734376c-4.710937 0-8.535156-3.824219-8.535156-8.535157 0-4.710937 3.824219-8.53125 8.535156-8.53125 28.3125 0 42.667969-20.097656 42.667969-59.734375 0-4.710937 3.820313-8.53125 8.53125-8.53125h85.335938c4.707031 0 8.53125 3.820313 8.53125 8.53125 0 39.636719 14.351562 59.734375 42.667969 59.734375 4.710937 0 8.53125 3.820313 8.53125 8.53125 0 4.710938-3.820313 8.535157-8.53125 8.535157zm-146.167969-17.066407h104.609375c-10.511719-11.640625-16.699219-28.972656-17.9375-51.199219h-68.734375c-1.246094 22.226563-7.425781 39.558594-17.9375 51.199219zm0 0"/><path d="m43.167969 153.601562c-23.527344 0-42.667969-19.140624-42.667969-42.667968v-34.132813c0-4.710937 3.824219-8.535156 8.535156-8.535156h68.265625c4.710938 0 8.535157 3.824219 8.535157 8.535156v34.132813c0 23.527344-19.140626 42.667968-42.667969 42.667968zm-25.601563-68.269531v25.601563c0 14.113281 11.488282 25.601562 25.601563 25.601562s25.601562-11.488281 25.601562-25.601562v-25.601563zm0 0"/><path d="m111.433594 153.601562c-23.523438 0-42.664063-19.140624-42.664063-42.667968v-34.132813c0-4.710937 3.820313-8.535156 8.53125-8.535156h68.265625c4.710938 0 8.535156 3.824219 8.535156 8.535156v34.132813c0 23.527344-19.140624 42.667968-42.667968 42.667968zm-25.597656-68.269531v25.601563c0 14.113281 11.484374 25.601562 25.597656 25.601562 14.117187 0 25.601562-11.488281 25.601562-25.601562v-25.601563zm0 0"/><path d="m179.703125 153.601562c-23.527344 0-42.667969-19.140624-42.667969-42.667968v-34.132813c0-4.710937 3.824219-8.535156 8.53125-8.535156h68.269532c4.710937 0 8.53125 3.824219 8.53125 8.535156v34.132813c0 23.527344-19.140626 42.667968-42.664063 42.667968zm-25.601563-68.269531v25.601563c0 14.113281 11.484376 25.601562 25.601563 25.601562 14.113281 0 25.597656-11.488281 25.597656-25.601562v-25.601563zm0 0"/><path d="m384.5 153.601562c-23.523438 0-42.664062-19.140624-42.664062-42.667968v-34.132813c0-4.710937 3.820312-8.535156 8.53125-8.535156h68.269531c4.707031 0 8.53125 3.824219 8.53125 8.535156v34.132813c0 23.527344-19.140625 42.667968-42.667969 42.667968zm-25.597656-68.269531v25.601563c0 14.113281 11.484375 25.601562 25.597656 25.601562 14.117188 0 25.601562-11.488281 25.601562-25.601562v-25.601563zm0 0"/><path d="m452.769531 153.601562c-23.527343 0-42.667969-19.140624-42.667969-42.667968v-34.132813c0-4.710937 3.824219-8.535156 8.535157-8.535156h68.265625c4.710937 0 8.53125 3.824219 8.53125 8.535156v34.132813c0 23.527344-19.140625 42.667968-42.664063 42.667968zm-25.601562-68.269531v25.601563c0 14.113281 11.484375 25.601562 25.601562 25.601562 14.113281 0 25.597657-11.488281 25.597657-25.601562v-25.601563zm0 0"/><path d="m77.300781 85.332031h-68.265625c-3.449218 0-6.5625-2.082031-7.886718-5.265625-1.320313-3.191406-.585938-6.859375 1.851562-9.300781l68.269531-68.265625c1.59375-1.605469 3.769531-2.5 6.03125-2.5h45.507813c3.148437 0 6.042968 1.730469 7.527344 4.503906 1.484374 2.773438 1.324218 6.144532-.425782 8.757813l-45.507812 68.265625c-1.589844 2.382812-4.25 3.804687-7.101563 3.804687zm-47.667969-17.066406h43.101563l34.136719-51.199219h-26.035156zm0 0"/><path d="m145.566406 85.332031h-68.265625c-3.148437 0-6.039062-1.730469-7.527343-4.503906-1.484376-2.773437-1.320313-6.144531.429687-8.753906l45.507813-68.269531c1.585937-2.378907 4.25-3.804688 7.097656-3.804688h45.507812c2.742188 0 5.316406 1.3125 6.921875 3.542969 1.605469 2.226562 2.039063 5.085937 1.179688 7.6875l-22.761719 68.265625c-1.148438 3.492187-4.410156 5.835937-8.089844 5.835937zm-52.316406-17.066406h46.175781l17.066407-51.199219h-29.109376zm0 0"/><path d="m213.835938 85.332031h-68.269532c-2.738281 0-5.3125-1.3125-6.917968-3.539062-1.605469-2.226563-2.039063-5.085938-1.179688-7.691407l22.761719-68.265624c1.160156-3.488282 4.417969-5.835938 8.097656-5.835938h45.507813c4.710937 0 8.53125 3.824219 8.53125 8.535156v68.265625c0 4.710938-3.820313 8.53125-8.53125 8.53125zm-56.433594-17.066406h47.898437v-51.199219h-30.832031zm0 0"/><path d="m316.234375 153.601562c-23.527344 0-42.667969-19.140624-42.667969-42.667968v-34.132813c0-4.710937 3.824219-8.535156 8.535156-8.535156h68.265626c4.710937 0 8.535156 3.824219 8.535156 8.535156v34.132813c0 23.527344-19.140625 42.667968-42.667969 42.667968zm-25.597656-68.269531v25.601563c0 14.113281 11.484375 25.601562 25.597656 25.601562s25.601563-11.488281 25.601563-25.601562v-25.601563zm0 0"/><path d="m247.96875 153.601562c-23.527344 0-42.667969-19.140624-42.667969-42.667968v-34.132813c0-4.710937 3.824219-8.535156 8.535157-8.535156h68.265624c4.710938 0 8.535157 3.824219 8.535157 8.535156v34.132813c0 23.527344-19.140625 42.667968-42.667969 42.667968zm-25.601562-68.269531v25.601563c0 14.113281 11.488281 25.601562 25.601562 25.601562s25.597656-11.488281 25.597656-25.601562v-25.601563zm0 0"/><path d="m350.367188 85.332031h-68.265626c-4.710937 0-8.535156-3.820312-8.535156-8.53125v-68.265625c0-4.710937 3.824219-8.535156 8.535156-8.535156h45.507813c3.679687 0 6.929687 2.347656 8.097656 5.835938l22.757813 68.265624c.871094 2.605469.429687 5.464844-1.175782 7.691407-1.605468 2.226562-4.179687 3.539062-6.921874 3.539062zm-59.730469-17.066406h47.894531l-17.066406-51.199219h-30.828125zm0 0"/><path d="m418.636719 85.332031h-68.269531c-3.675782 0-6.929688-2.34375-8.097657-5.835937l-22.757812-68.265625c-.871094-2.601563-.425781-5.460938 1.175781-7.6875 1.605469-2.230469 4.183594-3.542969 6.921875-3.542969h45.507813c2.851562 0 5.511718 1.425781 7.101562 3.796875l45.507812 68.265625c1.75 2.621094 1.910157 5.984375.425782 8.757812-1.476563 2.78125-4.367188 4.511719-7.515625 4.511719zm-62.117188-17.066406h46.175781l-34.132812-51.199219h-29.109375zm0 0"/><path d="m486.902344 85.332031h-68.265625c-2.851563 0-5.515625-1.421875-7.101563-3.796875l-45.507812-68.265625c-1.75-2.621093-1.910156-5.980469-.425782-8.753906 1.484376-2.785156 4.375-4.515625 7.523438-4.515625h45.511719c2.257812 0 4.4375.894531 6.03125 2.5l68.265625 68.265625c2.441406 2.441406 3.175781 6.109375 1.851562 9.300781-1.320312 3.183594-4.4375 5.265625-7.882812 5.265625zm-63.703125-17.066406h43.101562l-51.199219-51.199219h-26.035156zm0 0"/><path d="m282.101562 85.332031h-68.265624c-4.710938 0-8.535157-3.820312-8.535157-8.53125v-68.265625c0-4.710937 3.824219-8.535156 8.535157-8.535156h68.265624c4.710938 0 8.535157 3.824219 8.535157 8.535156v68.265625c0 4.710938-3.824219 8.53125-8.535157 8.53125zm-59.734374-17.066406h51.199218v-51.199219h-51.199218zm0 0"/><path d="m427.167969 341.332031h-358.398438c-4.710937 0-8.535156-3.820312-8.535156-8.53125v-199.5c0-2.066406.75-4.0625 2.109375-5.617187 2.925781-3.363282 6.425781-8.984375 6.425781-16.75 0-4.710938 3.820313-8.535156 8.53125-8.535156 4.710938 0 8.535157 3.824218 8.535157 8.535156 0 14.113281 11.484374 25.601562 25.597656 25.601562 14.117187 0 25.601562-11.488281 25.601562-25.601562 0-4.710938 3.824219-8.535156 8.53125-8.535156 4.710938 0 8.535156 3.824218 8.535156 8.535156 0 14.113281 11.484376 25.601562 25.601563 25.601562 14.113281 0 25.597656-11.488281 25.597656-25.601562 0-4.710938 3.824219-8.535156 8.535157-8.535156 4.710937 0 8.53125 3.824218 8.53125 8.535156 0 14.113281 11.488281 25.601562 25.601562 25.601562s25.597656-11.488281 25.597656-25.601562c0-4.710938 3.824219-8.535156 8.535156-8.535156 4.710938 0 8.535157 3.824218 8.535157 8.535156 0 14.113281 11.484375 25.601562 25.597656 25.601562s25.601563-11.488281 25.601563-25.601562c0-4.710938 3.820312-8.535156 8.53125-8.535156 4.710937 0 8.535156 3.824218 8.535156 8.535156 0 14.113281 11.484375 25.601562 25.597656 25.601562 14.117188 0 25.601562-11.488281 25.601562-25.601562 0-4.710938 3.824219-8.535156 8.535157-8.535156 4.707031 0 8.53125 3.824218 8.53125 8.535156 0 7.765625 3.5 13.386718 6.425781 16.75 1.355469 1.554687 2.109375 3.542968 2.109375 5.617187v199.5c0 4.710938-3.824219 8.53125-8.535156 8.53125zm-349.867188-17.066406h341.335938v-187.757813c-7.792969 10.367188-20.191407 17.09375-34.136719 17.09375-13.941406 0-26.339844-6.726562-34.132812-17.09375-7.789063 10.367188-20.1875 17.09375-34.132813 17.09375-13.941406 0-26.34375-6.726562-34.132813-17.09375-7.789062 10.367188-20.191406 17.09375-34.132812 17.09375-13.945312 0-26.34375-6.726562-34.132812-17.09375-7.792969 10.367188-20.191407 17.09375-34.132813 17.09375-13.945313 0-26.34375-6.726562-34.136719-17.09375-7.789062 10.367188-20.1875 17.09375-34.132812 17.09375-13.941406 0-26.339844-6.726562-34.132813-17.09375zm0 0"/><path d="m461.300781 341.332031h-426.664062c-4.710938 0-8.535157-3.820312-8.535157-8.53125v-188.945312c0-2.644531 1.230469-5.136719 3.3125-6.75 2.089844-1.613281 4.804688-2.160157 7.363282-1.511719 2.457031.640625 4.488281.941406 6.390625.941406 14.113281 0 25.601562-11.488281 25.601562-25.601562 0-4.710938 3.820313-8.535156 8.53125-8.535156 4.710938 0 8.535157 3.824218 8.535157 8.535156 0 14.113281 11.484374 25.601562 25.597656 25.601562 14.117187 0 25.601562-11.488281 25.601562-25.601562 0-4.710938 3.824219-8.535156 8.53125-8.535156 4.710938 0 8.535156 3.824218 8.535156 8.535156 0 14.113281 11.484376 25.601562 25.601563 25.601562 14.113281 0 25.597656-11.488281 25.597656-25.601562 0-4.710938 3.824219-8.535156 8.535157-8.535156 4.710937 0 8.53125 3.824218 8.53125 8.535156 0 14.113281 11.488281 25.601562 25.601562 25.601562s25.597656-11.488281 25.597656-25.601562c0-4.710938 3.824219-8.535156 8.535156-8.535156 4.710938 0 8.535157 3.824218 8.535157 8.535156 0 14.113281 11.484375 25.601562 25.597656 25.601562s25.601563-11.488281 25.601563-25.601562c0-4.710938 3.820312-8.535156 8.53125-8.535156 4.710937 0 8.535156 3.824218 8.535156 8.535156 0 14.113281 11.484375 25.601562 25.597656 25.601562 14.117188 0 25.601562-11.488281 25.601562-25.601562 0-4.710938 3.824219-8.535156 8.535157-8.535156 4.707031 0 8.53125 3.824218 8.53125 8.535156 0 14.113281 11.484375 25.601562 25.601562 25.601562 1.902344 0 3.933594-.300781 6.390625-.933594 2.558594-.648437 5.28125-.101562 7.363282 1.511719 2.082031 1.613281 3.3125 4.105469 3.3125 6.742188v188.945312c0 4.710938-3.824219 8.53125-8.535157 8.53125zm-418.132812-17.066406h409.601562v-170.664063c-13.945312 0-26.34375-6.726562-34.132812-17.09375-7.792969 10.367188-20.191407 17.09375-34.136719 17.09375-13.941406 0-26.339844-6.726562-34.132812-17.09375-7.789063 10.367188-20.1875 17.09375-34.132813 17.09375-13.941406 0-26.34375-6.726562-34.132813-17.09375-7.789062 10.367188-20.191406 17.09375-34.132812 17.09375-13.945312 0-26.34375-6.726562-34.132812-17.09375-7.792969 10.367188-20.191407 17.09375-34.132813 17.09375-13.945313 0-26.34375-6.726562-34.136719-17.09375-7.789062 10.367188-20.1875 17.09375-34.132812 17.09375-13.941406 0-26.339844-6.726562-34.132813-17.09375-7.789062 10.367188-20.1875 17.09375-34.132812 17.09375zm0 0"/><path d="m299.167969 307.199219h-102.398438c-4.710937 0-8.535156-3.820313-8.535156-8.53125v-59.734375h-17.066406c-4.710938 0-8.53125-3.824219-8.53125-8.535156 0-42.742188 22.328125-68.265626 59.730469-68.265626 4.710937 0 8.535156 3.824219 8.535156 8.535157 0 25.597656 12.84375 25.597656 17.066406 25.597656s17.066406 0 17.066406-25.597656c0-4.710938 3.824219-8.535157 8.53125-8.535157 37.402344 0 59.734375 25.523438 59.734375 68.265626 0 4.710937-3.820312 8.535156-8.53125 8.535156h-17.066406v59.734375c0 4.710937-3.824219 8.53125-8.535156 8.53125zm-93.867188-17.066407h85.335938v-59.734374c0-4.707032 3.820312-8.53125 8.53125-8.53125h16.683593c-1.597656-17.152344-8.816406-38.460938-34.289062-42.121094-2.625 21.214844-14.761719 33.585937-33.59375 33.585937s-30.96875-12.371093-33.597656-33.585937c-25.46875 3.660156-32.699219 24.96875-34.285156 42.121094h16.683593c4.710938 0 8.53125 3.824218 8.53125 8.53125zm0 0"/><path d="m299.167969 307.199219h-102.398438c-4.710937 0-8.535156-3.820313-8.535156-8.53125v-34.132813c0-4.710937 3.824219-8.535156 8.535156-8.535156h102.398438c4.710937 0 8.535156 3.824219 8.535156 8.535156v34.132813c0 4.710937-3.824219 8.53125-8.535156 8.53125zm-93.867188-17.066407h85.335938v-17.066406h-85.335938zm0 0"/><path d="m137.035156 221.867188h-34.132812c-4.710938 0-8.535156-3.824219-8.535156-8.535157v-34.132812c0-4.710938 3.824218-8.53125 8.535156-8.53125h34.132812c4.710938 0 8.53125 3.820312 8.53125 8.53125v34.132812c0 4.710938-3.820312 8.535157-8.53125 8.535157zm-25.601562-17.066407h17.066406v-17.066406h-17.066406zm0 0"/><path d="m137.035156 307.199219h-34.132812c-4.710938 0-8.535156-3.820313-8.535156-8.53125v-34.132813c0-4.710937 3.824218-8.535156 8.535156-8.535156h34.132812c4.710938 0 8.53125 3.824219 8.53125 8.535156v34.132813c0 4.710937-3.820312 8.53125-8.53125 8.53125zm-25.601562-17.066407h17.066406v-17.066406h-17.066406zm0 0"/><path d="m393.035156 221.867188h-34.132812c-4.710938 0-8.535156-3.824219-8.535156-8.535157v-34.132812c0-4.710938 3.824218-8.53125 8.535156-8.53125h34.132812c4.710938 0 8.53125 3.820312 8.53125 8.53125v34.132812c0 4.710938-3.820312 8.535157-8.53125 8.535157zm-25.601562-17.066407h17.066406v-17.066406h-17.066406zm0 0"/><path d="m393.035156 307.199219h-34.132812c-4.710938 0-8.535156-3.820313-8.535156-8.53125v-34.132813c0-4.710937 3.824218-8.535156 8.535156-8.535156h34.132812c4.710938 0 8.53125 3.824219 8.53125 8.535156v34.132813c0 4.710937-3.820312 8.53125-8.53125 8.53125zm-25.601562-17.066407h17.066406v-17.066406h-17.066406zm0 0"/></svg>