<?xml version="1.0" encoding="UTF-8" standalone="no"?>
<svg
   xmlns:dc="http://purl.org/dc/elements/1.1/"
   xmlns:cc="http://creativecommons.org/ns#"
   xmlns:rdf="http://www.w3.org/1999/02/22-rdf-syntax-ns#"
   xmlns:svg="http://www.w3.org/2000/svg"
   xmlns="http://www.w3.org/2000/svg"
   xmlns:sodipodi="http://sodipodi.sourceforge.net/DTD/sodipodi-0.dtd"
   xmlns:inkscape="http://www.inkscape.org/namespaces/inkscape"
   width="52"
   height="52"
   viewBox="0 0 52 52"
   fill="none"
   version="1.1"
   id="svg13"
   sodipodi:docname="whatsapp.svg"
   inkscape:export-filename="/var/www/html/mywebsite/shops/assets/img/whatsapp.png"
   inkscape:export-xdpi="58"
   inkscape:export-ydpi="58"
   inkscape:version="0.92.4 (5da689c313, 2019-01-14)">
  <metadata
     id="metadata17">
    <rdf:RDF>
      <cc:Work
         rdf:about="">
        <dc:format>image/svg+xml</dc:format>
        <dc:type
           rdf:resource="http://purl.org/dc/dcmitype/StillImage" />
      </cc:Work>
    </rdf:RDF>
  </metadata>
  <sodipodi:namedview
     pagecolor="#ffffff"
     bordercolor="#666666"
     borderopacity="1"
     objecttolerance="10"
     gridtolerance="10"
     guidetolerance="10"
     inkscape:pageopacity="0"
     inkscape:pageshadow="2"
     inkscape:window-width="1280"
     inkscape:window-height="772"
     id="namedview15"
     showgrid="false"
     inkscape:zoom="6.4183539"
     inkscape:cx="10.795744"
     inkscape:cy="19.077628"
     inkscape:window-x="0"
     inkscape:window-y="0"
     inkscape:window-maximized="1"
     inkscape:current-layer="svg13" />
  <defs
     id="defs11">
    <clipPath
       id="clip0">
      <rect
         width="52"
         height="52"
         fill="white"
         id="rect8" />
    </clipPath>
  </defs>
  <path
     inkscape:connector-curvature="0"
     d="m 111.02595,-49.949153 c -17.100005,0 -31.000005,13.9 -31.000005,31 0,5.25 1.299609,10.4001961 3.849609,14.9501951 l -2.649414,9.700195 c -0.45,1.55 -5.85e-4,3.149805 1.149414,4.2998049 1.15,1.15 2.750781,1.600195 4.300781,1.200195 l 10.09961,-2.6503899 c 4.400005,2.2999999 9.299805,3.4999999 14.299805,3.4999999 17.1,0 31,-13.8999999 31,-31 0,-8.3 -3.1998,-16.050391 -9.04981,-21.90039 -5.9,-5.85 -13.7,-9.09961 -21.99999,-9.09961 z m 0,3 c 7.49999,0 14.5498,2.900196 19.7998,8.200196 5.3,5.299999 8.2502,12.349804 8.2002,19.799804 0,15.4500001 -12.55001,28.0000001 -28,28.0000001 -4.65,0 -9.3004,-1.20039 -13.400396,-3.40039 -0.2,-0.1 -0.449219,-0.19922 -0.699219,-0.19922 -0.149999,0 -0.25039,-1.95e-4 -0.40039,0.0498 l -10.650391,2.79981 c -0.75,0.2 -1.249219,-0.20039 -1.449219,-0.40039 -0.2,-0.2 -0.60039,-0.69922 -0.40039,-1.44922 l 2.799804,-10.300781 c 0.1,-0.4 0.05059,-0.799414 -0.149414,-1.149414 -2.4,-4.2 -3.65039,-9.0501951 -3.65039,-13.9501951 0,-15.45 12.55,-28 28.000005,-28 z m 0,4.5 c -12.950005,0 -23.500005,10.5 -23.500005,23.5 0,4.15 1.10039,8.2 3.150391,11.7500001 0.8,1.4 0.999609,3.04961 0.599609,4.599609 l -1.450196,5.250001 5.600587,-1.44922 c 0.5,-0.15 0.999999,-0.200195 1.499999,-0.200195 1,0 1.99961,0.25 2.84961,0.75 3.450005,1.8 7.300005,2.799805 11.250005,2.799805 12.94999,0 23.49999,-10.55 23.49999,-23.5000001 0,-6.3 -2.45039,-12.200391 -6.90039,-16.65039 -4.4,-4.4 -10.29961,-6.84961 -16.5996,-6.84961 z m -10.4502,9.849609 h 1.40039 c 0.55,0 1.09941,0.05 1.64941,1.25 0.65,1.45 2.1,5.100195 2.25,5.450195 0.2,0.350001 0.30079,0.799805 0.0508,1.299805 -0.25,0.5 -0.35,0.8 -0.75,1.25 -0.35,0.45 -0.80058,0.950781 -1.10058,1.300781 -0.35,0.350001 -0.74981,0.75 -0.29981,1.5 0.45,0.75 1.89961,3.14961 4.09961,5.09961 2.8,2.5 5.2002,3.30039 5.9502,3.65039 0.75,0.350001 1.15058,0.299805 1.60058,-0.200195 0.45,-0.5 1.84961,-2.150391 2.34961,-2.900391 0.5,-0.75 1.00039,-0.599609 1.65039,-0.349609 0.7,0.25 4.29981,2.049414 5.04981,2.399414 0.75,0.35 1.24941,0.550587 1.39941,0.850586 0.2,0.4 0.20059,1.849609 -0.39941,3.5996091 -0.6,1.700001 -3.6,3.4 -5,3.5 -1.35,0.100001 -2.60059,0.600392 -8.85059,-1.849609 -7.5,-2.95 -12.249605,-10.6503911 -12.599605,-11.1503911 -0.35,-0.5 -3,-3.999414 -3,-7.649414 0,-3.649999 1.899609,-5.40039 2.599609,-6.15039 0.7,-0.75 1.450196,-0.900391 1.950196,-0.900391 z"
     id="path2-3"
     style="fill:#ffffff;stroke-width:0.5" />
  <path
     inkscape:connector-curvature="0"
     d="m 26.143725,1.4479776 c -13.396127,0 -24.2853768,10.4379604 -24.2853768,23.2789054 0,3.942394 1.0181128,7.809844 3.015781,11.226584 L 2.7985801,43.23766 c -0.3525296,1.163945 -4.582e-4,2.365289 0.90045,3.228863 0.9009093,0.863572 2.1549599,1.201637 3.3692288,0.901265 l 7.9120261,-1.990264 c 3.446958,1.727144 7.285461,2.628263 11.202458,2.628263 13.396127,0 24.285379,-10.43796 24.285379,-23.278904 0,-6.23274 -2.506728,-12.052759 -7.089611,-16.4457138 C 38.756454,3.8882144 32.64594,1.4479776 26.143725,1.4479776 Z m 0,2.2527972 c 5.875495,0 11.398308,2.1778505 15.511154,6.1577934 4.152016,3.9799408 6.463194,9.2738678 6.424023,14.8683148 0,11.601906 -9.831657,21.026108 -21.935177,21.026108 -3.642806,0 -7.285919,-0.901412 -10.497855,-2.553464 -0.15668,-0.0751 -0.351918,-0.149601 -0.547768,-0.149601 -0.11751,0 -0.196156,-1.46e-4 -0.313665,0.0374 L 6.4409278,45.18979 C 5.8533783,45.339977 5.4622904,45.039312 5.3056106,44.889125 5.1489308,44.738938 4.8352655,44.364057 4.9919454,43.800859 l 2.1933645,-7.735191 c 0.07834,-0.300373 0.039633,-0.600306 -0.117051,-0.863132 -1.8801583,-3.153917 -2.8597128,-6.796085 -2.8597128,-10.475653 0,-11.601906 9.8316619,-21.0261082 21.9351789,-21.0261082 z m 0,3.3791959 c -10.14502,0 -18.4098826,7.8847903 -18.4098826,17.6469123 0,3.116369 0.8620456,6.157645 2.4680136,8.823455 0.626721,1.051307 0.783095,2.290052 0.469734,3.453996 L 9.5355077,40.94673 13.923004,39.858463 c 0.391699,-0.112643 0.783397,-0.150333 1.175098,-0.150333 0.783398,0 1.566493,0.187733 2.232382,0.563199 2.702728,1.35168 5.718814,2.102465 8.813241,2.102465 10.145021,0 18.409884,-7.922336 18.409884,-17.646911 0,-4.730875 -1.919633,-9.161669 -5.405761,-12.503318 C 35.700892,8.9194619 31.079141,7.0799707 26.143725,7.0799707 Z M 17.95705,14.476362 h 1.097066 c 0.430868,0 0.86128,0.03755 1.292149,0.938665 0.509209,1.088852 1.645139,3.829902 1.762648,4.092727 0.15668,0.262828 0.235632,0.6006 0.03978,0.976067 -0.195848,0.375465 -0.274189,0.600746 -0.587549,0.938665 -0.274188,0.337919 -0.627178,0.713972 -0.862199,0.976799 -0.274188,0.262828 -0.587395,0.563199 -0.234865,1.126399 0.35253,0.563199 1.488152,2.365145 3.211631,3.829462 2.193517,1.877331 4.073829,2.478369 4.661378,2.741196 0.587549,0.262826 0.901368,0.225133 1.253897,-0.150333 0.352532,-0.375466 1.448984,-1.614798 1.840685,-2.177997 0.391698,-0.5632 0.783704,-0.450266 1.292913,-0.262532 0.54838,0.187732 3.368463,1.53897 3.956014,1.801796 0.587549,0.262826 0.978789,0.413454 1.096299,0.638733 0.156681,0.300373 0.157139,1.388931 -0.312901,2.703063 -0.470038,1.276586 -2.820237,2.55317 -3.916996,2.628263 -1.057589,0.07508 -2.037297,0.450854 -6.933542,-1.388931 -5.875494,-2.21525 -9.596334,-7.997724 -9.870524,-8.373189 -0.27419,-0.375467 -2.350198,-3.003291 -2.350198,-5.744193 0,-2.740903 1.488153,-4.055329 2.036531,-4.618528 0.54838,-0.563199 1.136083,-0.676132 1.52778,-0.676132 z"
     id="path2-6"
     style="fill:#3b5af5;stroke-width:0.38349703;fill-opacity:1" />
</svg>
