<?xml version="1.0" encoding="UTF-8"?> <svg xmlns="http://www.w3.org/2000/svg" viewBox="0 -31 512 512"> <path d="m14.949219 209.988281c.023437 0 .042969.003907.0625.003907.007812 0 .015625-.003907.023437-.003907h240.929688c.007812 0 .015625.003907.023437.003907.019531 0 .039063-.003907.0625-.003907 7.960938-.023437 14.765625-6.410156 14.933594-14.667969 0-.105468.015625-.210937.015625-.320312v-180c0-8.25-6.722656-15-15-15h-241c-8.234375 0-15 6.757812-15 15v180c0 .109375.015625.214844.015625.320312.171875 8.253907 6.949219 14.636719 14.933594 14.667969zm226.050781-44.914062-80.433594-60.074219 80.433594-60.074219zm-30.148438 14.925781h-150.703124l75.351562-56.277344zm-75.351562-93.722656-75.351562-56.277344h150.703124zm-25.066406 18.722656-80.433594 60.074219v-120.148438zm0 0"></path> <path d="m497.328125 240.015625c-.109375 0-.21875-.015625-.328125-.015625-59.199219.003906-240.15625-.007812-241.332031.015625-8.273438.195313-14.667969 6.996094-14.667969 14.984375v180c0 .109375.015625.214844.015625.320312.171875 8.277344 6.957031 14.636719 14.933594 14.667969h.0625.023437 240.929688.023437.0625c7.949219-.023437 14.761719-6.394531 14.933594-14.667969 0-.105468.015625-.210937.015625-.320312v-180c0-.109375-.015625-.214844-.015625-.320312-.164063-7.914063-6.511719-14.472657-14.65625-14.664063zm-226.328125 44.910156 80.433594 60.074219-80.433594 60.074219zm30.148438-14.925781h150.703124l-75.351562 56.277344zm75.351562 93.722656 75.351562 56.277344h-150.703124zm25.066406-18.722656 80.433594-60.074219v120.148438zm0 0"></path> <path d="m301 15v60c0 8.285156 6.714844 15 15 15h60c8.285156 0 15-6.714844 15-15v-60c0-8.285156-6.714844-15-15-15h-60c-8.285156 0-15 6.714844-15 15zm30 15h30v30h-30zm0 0"></path> <path d="m497 0h-61c-8.285156 0-15 6.714844-15 15v60c0 8.285156 6.714844 15 15 15h61c8.285156 0 15-6.714844 15-15v-60c0-8.285156-6.714844-15-15-15zm-15 60h-31v-30h31zm0 0"></path> <path d="m15 330h60c8.285156 0 15-6.714844 15-15v-60c0-8.285156-6.714844-15-15-15h-60c-8.285156 0-15 6.714844-15 15v60c0 8.285156 6.714844 15 15 15zm15-60h30v30h-30zm0 0"></path> <path d="m136 240c-8.285156 0-15 6.714844-15 15v60c0 8.285156 6.714844 15 15 15h60c8.285156 0 15-6.714844 15-15v-60c0-8.285156-6.714844-15-15-15zm45 60h-30v-30h30zm0 0"></path> <path d="m497 120h-181c-8.285156 0-15 6.714844-15 15s6.714844 15 15 15h181c8.285156 0 15-6.714844 15-15s-6.714844-15-15-15zm0 0"></path> <path d="m497 180h-181c-8.285156 0-15 6.714844-15 15s6.714844 15 15 15h181c8.285156 0 15-6.714844 15-15s-6.714844-15-15-15zm0 0"></path> <path d="m15 450h181c8.285156 0 15-6.714844 15-15s-6.714844-15-15-15h-181c-8.285156 0-15 6.714844-15 15s6.714844 15 15 15zm0 0"></path> <path d="m15 390h181c8.285156 0 15-6.714844 15-15s-6.714844-15-15-15h-181c-8.285156 0-15 6.714844-15 15s6.714844 15 15 15zm0 0"></path> </svg> 